<?xml version="1.0" encoding="iso-8859-1"?>
<!-- Uploaded to: SVG Repo, www.svgrepo.com, Generator: SVG Repo Mixer Tools -->
<svg fill="#000000" height="800px" width="800px" version="1.1" id="Layer_1" xmlns="http://www.w3.org/2000/svg" xmlns:xlink="http://www.w3.org/1999/xlink" 
	 viewBox="0 0 512 512" xml:space="preserve">
<g>
	<g>
		<path d="M145.067,153.6c-18.773,0-34.133,15.36-34.133,34.133c0,18.773,15.36,34.133,34.133,34.133
			c18.773,0,34.133-15.36,34.133-34.133C179.2,168.96,163.84,153.6,145.067,153.6z"/>
	</g>
</g>
<g>
	<g>
		<path d="M294.4,89.6c-17.067-5.973-21.333-29.013-21.333-46.933h-8.533c-18.773,0-34.133,15.36-34.133,34.133
			c0,18.773,15.36,34.133,34.133,34.133c10.24,0,17.92-4.267,22.187-8.533C286.72,102.4,296.107,89.6,294.4,89.6z"/>
	</g>
</g>
<g>
	<g>
		<path d="M153.6,341.333c-14.507,0-25.6,11.093-25.6,25.6s11.093,25.6,25.6,25.6c14.507,0,25.6-11.093,25.6-25.6
			S168.107,341.333,153.6,341.333z"/>
	</g>
</g>
<g>
	<g>
		<path d="M508.587,215.893c-0.853-3.413-3.413-5.973-6.827-6.827s-6.827,0.853-8.533,3.413
			c-11.093,16.213-29.867,26.453-49.493,26.453c-21.333,0-40.96-11.947-52.053-29.867c-1.707-2.56-5.12-4.267-8.533-4.267
			c-2.56,0-5.12,0-7.68,0c-42.667,0-76.8-34.133-76.8-76.8c0-5.12,0.853-10.24,1.707-14.507l-2.56,1.707
			c-9.387,8.533-21.333,12.8-33.28,12.8c-28.16,0-51.2-23.04-51.2-51.2c0-28.16,23.04-51.2,51.2-51.2h11.947
			c1.707-3.413,3.413-7.68,6.827-10.24c1.707-2.56,2.56-5.973,1.707-8.533s-4.267-5.12-6.827-5.12C269.653,0,262.827,0,256,0
			C115.2,0,0,115.2,0,256s115.2,256,256,256s256-115.2,256-256C512,242.347,511.147,229.547,508.587,215.893z M153.6,409.6
			c-23.893,0-42.667-18.773-42.667-42.667s18.773-42.667,42.667-42.667c23.893,0,42.667,18.773,42.667,42.667
			S177.493,409.6,153.6,409.6z M145.067,238.933c-28.16,0-51.2-23.04-51.2-51.2s23.04-51.2,51.2-51.2c28.16,0,51.2,23.04,51.2,51.2
			S173.227,238.933,145.067,238.933z M324.267,435.2C286.72,435.2,256,404.48,256,366.933s30.72-68.267,68.267-68.267
			c37.547,0,68.267,30.72,68.267,68.267S361.813,435.2,324.267,435.2z"/>
	</g>
</g>
<g>
	<g>
		<path d="M324.267,315.733c-28.16,0-51.2,23.04-51.2,51.2s23.04,51.2,51.2,51.2c28.16,0,51.2-23.04,51.2-51.2
			S352.427,315.733,324.267,315.733z"/>
	</g>
</g>
</svg>