<svg width="800" height="800" viewBox="0 0 800 800" fill="none" xmlns="http://www.w3.org/2000/svg">
<g clip-path="url(#clip0_63_2)">
<path d="M226.667 240C197.334 240 173.334 264 173.334 293.333C173.334 322.666 197.334 346.666 226.667 346.666C256 346.666 280 322.666 280 293.333C280 264 256 240 226.667 240Z" fill="black"/>
<path d="M460 140C433.333 130.667 426.667 94.6672 426.667 66.6672H413.334C384.002 66.6672 360.002 90.6672 360.002 120C360.002 149.333 384.002 173.333 413.334 173.333C429.334 173.333 441.334 166.666 448.002 160C448.002 160 462.667 140 460 140Z" fill="black"/>
<path d="M240 533.333C217.333 533.333 200 550.666 200 573.333C200 596 217.333 613.333 240 613.333C262.667 613.333 280 596 280 573.333C280 550.666 262.667 533.333 240 533.333Z" fill="black"/>
<path d="M794.667 337.333C793.334 332 789.334 328 784 326.666C778.666 325.331 773.333 327.998 770.667 331.998C753.334 357.331 724 373.331 693.334 373.331C660.002 373.331 629.334 354.664 612.002 326.664C609.334 322.664 604.002 319.997 598.669 319.997C594.669 319.997 590.669 319.997 586.669 319.997C520.002 319.997 466.669 266.664 466.669 199.997C466.669 191.997 468.002 183.997 469.336 177.33L465.336 179.997C450.669 193.33 432.003 199.997 413.336 199.997C369.336 199.997 333.336 163.997 333.336 119.997C333.336 75.9969 369.336 39.9969 413.336 39.9969H432.003C434.67 34.6641 437.336 27.9969 442.67 23.9969C445.337 19.9969 446.67 14.6641 445.337 10.6641C444.005 6.66406 438.67 2.66406 434.67 2.66406C421.333 0 410.667 0 400 0C180 0 0 180 0 400C0 620 180 800 400 800C620 800 800 620 800 400C800 378.667 798.667 358.667 794.667 337.333ZM240 640C202.667 640 173.333 610.667 173.333 573.333C173.333 535.998 202.666 506.666 240 506.666C277.333 506.666 306.667 535.998 306.667 573.333C306.667 610.667 277.333 640 240 640ZM226.667 373.333C182.667 373.333 146.667 337.333 146.667 293.333C146.667 249.333 182.667 213.333 226.667 213.333C270.667 213.333 306.667 249.333 306.667 293.333C306.667 337.333 270.667 373.333 226.667 373.333ZM506.667 680C448 680 400 632 400 573.333C400 514.666 448 466.666 506.667 466.666C565.334 466.666 613.334 514.666 613.334 573.333C613.334 632 565.333 680 506.667 680Z" fill="black"/>
<path d="M506.667 493.333C462.667 493.333 426.667 529.333 426.667 573.333C426.667 617.333 462.667 653.333 506.667 653.333C550.667 653.333 586.667 617.333 586.667 573.333C586.667 529.333 550.667 493.333 506.667 493.333Z" fill="black"/>
</g>
<defs>
<clipPath id="clip0_63_2">
<rect width="800" height="800" fill="white"/>
</clipPath>
</defs>
</svg>
