<svg width="800" height="800" viewBox="0 0 800 800" fill="none" xmlns="http://www.w3.org/2000/svg">
<path d="M259.986 202.093C133.993 202.093 28.0666 288.158 26.6667 394.727C28.0464 296.631 67.9851 203.022 137.845 134.144C207.706 65.2661 301.872 26.657 399.977 26.6667C545.04 26.6667 678.443 96.1958 740.245 217.084C749.984 236.333 774.075 279.788 773.317 345.147C773.253 376.359 765.029 407.013 749.461 434.066C733.893 461.119 711.52 483.632 684.565 499.371C657.851 515.238 627.36 523.649 596.283 523.723C596.08 523.723 517.015 527.573 475.076 498.408C466.268 492.254 461.31 484.934 461.31 477.322C461.31 468.106 468.572 463.877 470.935 460.814C485.692 441.624 493.683 418.409 493.683 402.747C493.683 387.086 490.475 347.772 472.451 316.653M259.986 202.093C270.193 202.093 328.406 203.085 382.478 231.462C430.133 256.486 455.098 286.7 472.451 316.653M259.986 202.093C143.465 202.093 44.1066 275.708 28.7189 371.071C27.5764 379.15 26.988 387.203 26.988 395.172C26.483 451.561 38.5481 507.353 62.3067 558.496C101.134 641.339 169.034 707.04 253.112 743.125C337.189 779.205 431.589 783.152 518.386 754.219C487.995 763.803 455.888 766.677 424.277 762.651M472.451 316.653C487.993 343.486 492.518 376.415 493.47 395.017C492.391 376.87 486.011 359.404 475.076 344.804C466.363 333.129 455.064 323.63 442.065 317.052C429.066 310.474 414.72 306.996 400.152 306.89C380.269 306.525 365.132 313.684 355.908 318.046C355.539 318.221 355.18 318.391 354.83 318.556C324.022 333.731 296.909 355.463 275.39 382.228M424.277 762.651C392.667 758.624 362.306 747.787 335.29 730.891L335.027 730.773C309.014 714.624 286.47 693.472 268.706 668.533C248.46 640.795 234.527 608.96 227.886 575.269C221.245 541.573 222.056 506.835 230.262 473.487C238.468 440.14 253.871 408.992 275.39 382.228M424.277 762.651C446.951 765.541 469.877 764.864 492.246 760.72C501.806 758.688 510.762 756.379 518.032 754.085L521.853 752.8C602.208 725.019 670.715 670.709 716.091 598.811C717.483 596.619 718.101 594.032 717.856 591.451C717.605 588.864 716.507 586.443 714.725 584.555C712.949 582.667 710.592 581.429 708.027 581.029C705.467 580.635 702.843 581.104 700.576 582.363C690.619 587.568 680.352 592.155 669.835 596.096C636.352 608.624 600.885 615.008 565.131 614.939C427.125 614.939 306.908 520.006 306.908 398.185C307.084 381.846 311.619 365.85 320.042 351.849C328.438 337.893 340.394 326.423 354.684 318.613C323.935 333.786 296.876 355.505 275.39 382.228M493.607 398.276C493.617 398.585 493.626 398.888 493.634 399.186M493.634 399.186C493.628 399.209 493.634 399.182 493.634 399.186Z" stroke="black" stroke-width="53.3333"/>
</svg>
