<svg width="1000" height="1000" viewBox="0 0 1000 1000" fill="none" xmlns="http://www.w3.org/2000/svg">
<rect width="1000" height="1000" fill="#AB0606" fill-opacity="0.99"/>
<path d="M335.091 546V452.909H354.773V529.773H394.682V546H335.091ZM465.818 483C465.182 480.788 464.288 478.833 463.136 477.136C461.985 475.409 460.576 473.955 458.909 472.773C457.273 471.561 455.394 470.636 453.273 470C451.182 469.364 448.864 469.045 446.318 469.045C441.561 469.045 437.379 470.227 433.773 472.591C430.197 474.955 427.409 478.394 425.409 482.909C423.409 487.394 422.409 492.879 422.409 499.364C422.409 505.848 423.394 511.364 425.364 515.909C427.333 520.455 430.121 523.924 433.727 526.318C437.333 528.682 441.591 529.864 446.5 529.864C450.955 529.864 454.758 529.076 457.909 527.5C461.091 525.894 463.515 523.636 465.182 520.727C466.879 517.818 467.727 514.379 467.727 510.409L471.727 511H447.727V496.182H486.682V507.909C486.682 516.091 484.955 523.121 481.5 529C478.045 534.848 473.288 539.364 467.227 542.545C461.167 545.697 454.227 547.273 446.409 547.273C437.682 547.273 430.015 545.348 423.409 541.5C416.803 537.621 411.652 532.121 407.955 525C404.288 517.848 402.455 509.364 402.455 499.545C402.455 492 403.545 485.273 405.727 479.364C407.939 473.424 411.03 468.394 415 464.273C418.97 460.152 423.591 457.015 428.864 454.864C434.136 452.712 439.848 451.636 446 451.636C451.273 451.636 456.182 452.409 460.727 453.955C465.273 455.47 469.303 457.621 472.818 460.409C476.364 463.197 479.258 466.515 481.5 470.364C483.742 474.182 485.182 478.394 485.818 483H465.818ZM501.466 546V452.909H538.193C545.254 452.909 551.269 454.258 556.239 456.955C561.208 459.621 564.996 463.333 567.602 468.091C570.239 472.818 571.557 478.273 571.557 484.455C571.557 490.636 570.223 496.091 567.557 500.818C564.89 505.545 561.027 509.227 555.966 511.864C550.936 514.5 544.845 515.818 537.693 515.818H514.284V500.045H534.511C538.299 500.045 541.42 499.394 543.875 498.091C546.36 496.758 548.208 494.924 549.42 492.591C550.663 490.227 551.284 487.515 551.284 484.455C551.284 481.364 550.663 478.667 549.42 476.364C548.208 474.03 546.36 472.227 543.875 470.955C541.39 469.652 538.239 469 534.42 469H521.148V546H501.466ZM617.341 546H584.341V452.909H617.614C626.977 452.909 635.038 454.773 641.795 458.5C648.553 462.197 653.75 467.515 657.386 474.455C661.053 481.394 662.886 489.697 662.886 499.364C662.886 509.061 661.053 517.394 657.386 524.364C653.75 531.333 648.523 536.682 641.705 540.409C634.917 544.136 626.795 546 617.341 546ZM604.023 529.136H616.523C622.341 529.136 627.235 528.106 631.205 526.045C635.205 523.955 638.205 520.727 640.205 516.364C642.235 511.97 643.25 506.303 643.25 499.364C643.25 492.485 642.235 486.864 640.205 482.5C638.205 478.136 635.22 474.924 631.25 472.864C627.28 470.803 622.386 469.773 616.568 469.773H604.023V529.136Z" fill="black"/>
</svg>
