<?xml version="1.0" encoding="utf-8"?>
<!-- Generator: Adobe Illustrator 16.0.0, SVG Export Plug-In . SVG Version: 6.00 Build 0)  -->
<svg version="1.2" baseProfile="tiny" id="icon" xmlns="http://www.w3.org/2000/svg" xmlns:xlink="http://www.w3.org/1999/xlink"
	 x="0px" y="0px" width="500px" height="500px" viewBox="0 0 500 500" xml:space="preserve">
<g>
	<path fill="#1996AD" d="M86.161,268.65h43.799v9.966H73.91v-92.422h12.251V268.65z"/>
	<path fill="#1996AD" d="M220.972,266.492c-3.132,4.486-7.501,7.839-13.108,10.061c-5.608,2.222-12.135,3.333-19.583,3.333
		c-7.533,0-14.219-1.767-20.059-5.3c-5.84-3.533-10.357-8.559-13.552-15.076c-3.196-6.516-4.835-14.07-4.919-22.661v-8.062
		c0-13.922,3.247-24.713,9.744-32.373c6.496-7.659,15.625-11.489,27.39-11.489c9.648,0,17.414,2.466,23.296,7.395
		c5.881,4.93,9.479,11.924,10.791,20.979h-12.188c-2.285-12.272-9.564-18.408-21.836-18.408c-8.167,0-14.356,2.87-18.567,8.609
		c-4.211,5.739-6.338,14.051-6.379,24.936v7.56c0,10.376,2.37,18.625,7.109,24.745c4.739,6.121,11.15,9.18,19.233,9.18
		c4.57,0,8.569-0.506,11.997-1.52s6.262-2.724,8.506-5.13v-20.709h-21.392v-9.966h33.516V266.492z"/>
	<path fill="#1996AD" d="M266.472,242.434v36.182h-12.188v-92.422h34.087c10.114,0,18.037,2.582,23.772,7.744
		c5.734,5.164,8.601,11.997,8.601,20.503c0,8.972-2.804,15.88-8.411,20.725c-5.608,4.846-13.638,7.268-24.089,7.268H266.472z
		 M266.472,232.468h21.899c6.516,0,11.51-1.536,14.98-4.61c3.469-3.073,5.205-7.514,5.205-13.322c0-5.511-1.736-9.919-5.205-13.226
		c-3.47-3.307-8.231-5.023-14.282-5.15h-22.598V232.468z"/>
	<path fill="#1996AD" d="M349.296,278.616v-92.422h26.089c8.04,0,15.149,1.777,21.328,5.332c6.178,3.555,10.95,8.612,14.314,15.171
		c3.364,6.56,5.067,14.092,5.11,22.598v5.903c0,8.718-1.682,16.356-5.046,22.915c-3.364,6.56-8.167,11.595-14.409,15.107
		c-6.243,3.513-13.511,5.311-21.804,5.396H349.296z M361.484,196.16v72.49h12.822c9.395,0,16.704-2.922,21.931-8.767
		c5.226-5.845,7.839-14.168,7.839-24.969v-5.4c0-10.503-2.466-18.667-7.395-24.491c-4.93-5.824-11.924-8.777-20.979-8.863H361.484z"
		/>
</g>
<g>
	<path d="M120.418,183c-0.062-1.655-0.126-3.308-0.16-4.989l-0.07-3.558l3.086-1.769c33.59-19.271,53.935-41.168,61.123-49.688
		l2.456-2.911l3.446,1.409c1.64,0.207,3.662,0.486,6.003,0.809C209.048,124.06,230.381,127,251.7,127h0.601
		c22.532,0,45.348-2.964,57.605-4.556c1.495-0.194,2.825-0.367,3.968-0.51l3.036-1.265l2.694,2.577
		c7.126,8.448,27.348,30.187,61.123,49.564l3.088,1.643l-0.073,3.559c-0.034,1.681-0.098,3.333-0.16,4.988h8.199
		c0.131-3.597,0.22-7.233,0.22-10.946v-2.293l-3.731-2.093l0.003-0.054c-44.218-24.465-65.638-53.439-65.852-53.732l-1.381-1.955
		l-2.334,0.334c-1.401,0.197-34.491,4.793-66.437,4.793l-0.285-0.001l-0.292,0.001c-31.972,0-65.063-4.596-66.456-4.792
		l-2.448-0.346l-1.475,1.987c-0.199,0.273-22.731,30.157-67.773,54.636l-0.602,0.327l-1.73,0.085L108,170.109v1.944
		c0,3.709,0.095,7.346,0.237,10.946H120.418z"/>
	<path d="M355.886,290c-8.56,16.125-18.045,29.262-26.872,39.578c-29.936,34.988-62.878,50.726-76.708,50.726
		c-0.098,0-0.202-0.004-0.306-0.009c-0.126,0.006-0.218,0.009-0.306,0.009c-13.83,0-46.772-15.738-76.708-50.726
		c-8.827-10.316-18.312-23.453-26.872-39.578h-11.699c9.551,18.125,20.335,33.021,30.396,44.779
		c28.288,33.061,65.608,53.524,83.964,53.524c0.145,0,0.406-0.008,0.621-0.015l0.354-0.01l0.4,0.012
		c0.158,0.005,0.328,0.012,0.45,0.012c18.055,0,53.86-20.021,82.527-53.524c9.897-11.567,20.516-26.424,29.87-44.779H355.886z"/>
</g>
</svg>
