<svg width="360" height="100" viewBox="0 0 360 100" fill="none" xmlns="http://www.w3.org/2000/svg">
<path d="M79.517 59V41.5455H86.4034C87.7273 41.5455 88.8551 41.7983 89.7869 42.304C90.7188 42.804 91.429 43.5 91.9176 44.392C92.4119 45.2784 92.6591 46.3011 92.6591 47.4602C92.6591 48.6193 92.4091 49.642 91.9091 50.5284C91.4091 51.4148 90.6847 52.1051 89.7358 52.5994C88.7926 53.0937 87.6506 53.3409 86.3097 53.3409H81.9205V50.3835H85.7131C86.4233 50.3835 87.0085 50.2614 87.4688 50.017C87.9347 49.767 88.2813 49.4233 88.5085 48.9858C88.7415 48.5426 88.858 48.0341 88.858 47.4602C88.858 46.8807 88.7415 46.375 88.5085 45.9432C88.2813 45.5057 87.9347 45.1676 87.4688 44.929C87.0028 44.6847 86.4119 44.5625 85.696 44.5625H83.2074V59H79.517ZM106.457 59.2557C105.134 59.2557 103.989 58.9744 103.023 58.4119C102.063 57.8437 101.321 57.054 100.798 56.0426C100.276 55.0256 100.014 53.8466 100.014 52.5057C100.014 51.1534 100.276 49.9716 100.798 48.9602C101.321 47.9432 102.063 47.1534 103.023 46.5909C103.989 46.0227 105.134 45.7386 106.457 45.7386C107.781 45.7386 108.923 46.0227 109.884 46.5909C110.849 47.1534 111.594 47.9432 112.116 48.9602C112.639 49.9716 112.901 51.1534 112.901 52.5057C112.901 53.8466 112.639 55.0256 112.116 56.0426C111.594 57.054 110.849 57.8437 109.884 58.4119C108.923 58.9744 107.781 59.2557 106.457 59.2557ZM106.474 56.4432C107.077 56.4432 107.58 56.2727 107.983 55.9318C108.386 55.5852 108.69 55.1136 108.895 54.517C109.105 53.9205 109.21 53.2415 109.21 52.4801C109.21 51.7188 109.105 51.0398 108.895 50.4432C108.69 49.8466 108.386 49.375 107.983 49.0284C107.58 48.6818 107.077 48.5085 106.474 48.5085C105.866 48.5085 105.355 48.6818 104.94 49.0284C104.531 49.375 104.222 49.8466 104.011 50.4432C103.807 51.0398 103.705 51.7188 103.705 52.4801C103.705 53.2415 103.807 53.9205 104.011 54.517C104.222 55.1136 104.531 55.5852 104.94 55.9318C105.355 56.2727 105.866 56.4432 106.474 56.4432ZM115.261 59V45.9091H118.781V48.1932H118.918C119.156 47.3807 119.557 46.767 120.119 46.3523C120.682 45.9318 121.33 45.7216 122.062 45.7216C122.244 45.7216 122.44 45.733 122.651 45.7557C122.861 45.7784 123.045 45.8097 123.205 45.8494V49.071C123.034 49.0199 122.798 48.9744 122.497 48.9347C122.196 48.8949 121.92 48.875 121.67 48.875C121.136 48.875 120.659 48.9915 120.239 49.2244C119.824 49.4517 119.494 49.7699 119.25 50.179C119.011 50.5881 118.892 51.0597 118.892 51.5938V59H115.261ZM132.701 45.9091V48.6364H124.817V45.9091H132.701ZM126.607 42.7727H130.238V54.9773C130.238 55.3125 130.289 55.5739 130.391 55.7614C130.494 55.9432 130.636 56.071 130.817 56.1449C131.005 56.2187 131.221 56.2557 131.465 56.2557C131.636 56.2557 131.806 56.2415 131.977 56.2131C132.147 56.179 132.278 56.1534 132.369 56.1364L132.94 58.8381C132.758 58.8949 132.502 58.9602 132.173 59.0341C131.843 59.1136 131.442 59.1619 130.971 59.179C130.096 59.2131 129.329 59.0966 128.67 58.8295C128.016 58.5625 127.508 58.1477 127.144 57.5852C126.781 57.0227 126.602 56.3125 126.607 55.4545V42.7727ZM135.066 59V45.9091H138.697V59H135.066ZM136.89 44.2216C136.35 44.2216 135.887 44.0426 135.501 43.6847C135.12 43.321 134.93 42.8864 134.93 42.3807C134.93 41.8807 135.12 41.4517 135.501 41.0938C135.887 40.7301 136.35 40.5483 136.89 40.5483C137.43 40.5483 137.89 40.7301 138.271 41.0938C138.657 41.4517 138.85 41.8807 138.85 42.3807C138.85 42.8864 138.657 43.321 138.271 43.6847C137.89 44.0426 137.43 44.2216 136.89 44.2216ZM148.645 45.9091V48.6364H140.565V45.9091H148.645ZM142.415 59V44.9631C142.415 44.0142 142.599 43.2273 142.969 42.6023C143.344 41.9773 143.855 41.5085 144.503 41.196C145.151 40.8835 145.886 40.7273 146.71 40.7273C147.267 40.7273 147.776 40.7699 148.236 40.8551C148.702 40.9403 149.048 41.017 149.276 41.0852L148.628 43.8125C148.486 43.767 148.31 43.7244 148.099 43.6847C147.895 43.6449 147.685 43.625 147.469 43.625C146.935 43.625 146.562 43.75 146.352 44C146.142 44.2443 146.037 44.5881 146.037 45.0312V59H142.415ZM156.309 59.2557C154.985 59.2557 153.84 58.9744 152.874 58.4119C151.914 57.8437 151.173 57.054 150.65 56.0426C150.127 55.0256 149.866 53.8466 149.866 52.5057C149.866 51.1534 150.127 49.9716 150.65 48.9602C151.173 47.9432 151.914 47.1534 152.874 46.5909C153.84 46.0227 154.985 45.7386 156.309 45.7386C157.633 45.7386 158.775 46.0227 159.735 46.5909C160.701 47.1534 161.445 47.9432 161.968 48.9602C162.491 49.9716 162.752 51.1534 162.752 52.5057C162.752 53.8466 162.491 55.0256 161.968 56.0426C161.445 57.054 160.701 57.8437 159.735 58.4119C158.775 58.9744 157.633 59.2557 156.309 59.2557ZM156.326 56.4432C156.928 56.4432 157.431 56.2727 157.835 55.9318C158.238 55.5852 158.542 55.1136 158.746 54.517C158.957 53.9205 159.062 53.2415 159.062 52.4801C159.062 51.7188 158.957 51.0398 158.746 50.4432C158.542 49.8466 158.238 49.375 157.835 49.0284C157.431 48.6818 156.928 48.5085 156.326 48.5085C155.718 48.5085 155.207 48.6818 154.792 49.0284C154.383 49.375 154.073 49.8466 153.863 50.4432C153.658 51.0398 153.556 51.7188 153.556 52.4801C153.556 53.2415 153.658 53.9205 153.863 54.517C154.073 55.1136 154.383 55.5852 154.792 55.9318C155.207 56.2727 155.718 56.4432 156.326 56.4432ZM155.005 44.2216L156.812 40.3438H160.17L157.57 44.2216H155.005ZM168.744 41.5455V59H165.113V41.5455H168.744ZM171.652 59V45.9091H175.283V59H171.652ZM173.476 44.2216C172.936 44.2216 172.473 44.0426 172.087 43.6847C171.706 43.321 171.516 42.8864 171.516 42.3807C171.516 41.8807 171.706 41.4517 172.087 41.0938C172.473 40.7301 172.936 40.5483 173.476 40.5483C174.016 40.5483 174.476 40.7301 174.857 41.0938C175.243 41.4517 175.436 41.8807 175.436 42.3807C175.436 42.8864 175.243 43.321 174.857 43.6847C174.476 44.0426 174.016 44.2216 173.476 44.2216ZM184.106 59.2557C182.782 59.2557 181.637 58.9744 180.671 58.4119C179.711 57.8437 178.969 57.054 178.447 56.0426C177.924 55.0256 177.663 53.8466 177.663 52.5057C177.663 51.1534 177.924 49.9716 178.447 48.9602C178.969 47.9432 179.711 47.1534 180.671 46.5909C181.637 46.0227 182.782 45.7386 184.106 45.7386C185.43 45.7386 186.572 46.0227 187.532 46.5909C188.498 47.1534 189.242 47.9432 189.765 48.9602C190.288 49.9716 190.549 51.1534 190.549 52.5057C190.549 53.8466 190.288 55.0256 189.765 56.0426C189.242 57.054 188.498 57.8437 187.532 58.4119C186.572 58.9744 185.43 59.2557 184.106 59.2557ZM184.123 56.4432C184.725 56.4432 185.228 56.2727 185.631 55.9318C186.035 55.5852 186.339 55.1136 186.543 54.517C186.754 53.9205 186.859 53.2415 186.859 52.4801C186.859 51.7188 186.754 51.0398 186.543 50.4432C186.339 49.8466 186.035 49.375 185.631 49.0284C185.228 48.6818 184.725 48.5085 184.123 48.5085C183.515 48.5085 183.004 48.6818 182.589 49.0284C182.18 49.375 181.87 49.8466 181.66 50.4432C181.455 51.0398 181.353 51.7188 181.353 52.4801C181.353 53.2415 181.455 53.9205 181.66 54.517C181.87 55.1136 182.18 55.5852 182.589 55.9318C183.004 56.2727 183.515 56.4432 184.123 56.4432ZM198.533 59V41.5455H205.419C206.743 41.5455 207.871 41.7983 208.803 42.304C209.734 42.804 210.445 43.5 210.933 44.392C211.428 45.2784 211.675 46.3011 211.675 47.4602C211.675 48.6193 211.425 49.642 210.925 50.5284C210.425 51.4148 209.7 52.1051 208.751 52.5994C207.808 53.0937 206.666 53.3409 205.325 53.3409H200.936V50.3835H204.729C205.439 50.3835 206.024 50.2614 206.484 50.017C206.95 49.767 207.297 49.4233 207.524 48.9858C207.757 48.5426 207.874 48.0341 207.874 47.4602C207.874 46.8807 207.757 46.375 207.524 45.9432C207.297 45.5057 206.95 45.1676 206.484 44.929C206.018 44.6847 205.428 44.5625 204.712 44.5625H202.223V59H198.533ZM214.004 59V45.9091H217.523V48.1932H217.66C217.898 47.3807 218.299 46.767 218.862 46.3523C219.424 45.9318 220.072 45.7216 220.805 45.7216C220.987 45.7216 221.183 45.733 221.393 45.7557C221.603 45.7784 221.788 45.8097 221.947 45.8494V49.071C221.776 49.0199 221.54 48.9744 221.239 48.9347C220.938 48.8949 220.663 48.875 220.413 48.875C219.879 48.875 219.401 48.9915 218.981 49.2244C218.566 49.4517 218.237 49.7699 217.992 50.179C217.754 50.5881 217.634 51.0597 217.634 51.5938V59H214.004ZM229.129 59.2557C227.805 59.2557 226.661 58.9744 225.695 58.4119C224.734 57.8437 223.993 57.054 223.47 56.0426C222.947 55.0256 222.686 53.8466 222.686 52.5057C222.686 51.1534 222.947 49.9716 223.47 48.9602C223.993 47.9432 224.734 47.1534 225.695 46.5909C226.661 46.0227 227.805 45.7386 229.129 45.7386C230.453 45.7386 231.595 46.0227 232.555 46.5909C233.521 47.1534 234.266 47.9432 234.788 48.9602C235.311 49.9716 235.572 51.1534 235.572 52.5057C235.572 53.8466 235.311 55.0256 234.788 56.0426C234.266 57.054 233.521 57.8437 232.555 58.4119C231.595 58.9744 230.453 59.2557 229.129 59.2557ZM229.146 56.4432C229.749 56.4432 230.251 56.2727 230.655 55.9318C231.058 55.5852 231.362 55.1136 231.567 54.517C231.777 53.9205 231.882 53.2415 231.882 52.4801C231.882 51.7188 231.777 51.0398 231.567 50.4432C231.362 49.8466 231.058 49.375 230.655 49.0284C230.251 48.6818 229.749 48.5085 229.146 48.5085C228.538 48.5085 228.027 48.6818 227.612 49.0284C227.203 49.375 226.893 49.8466 226.683 50.4432C226.479 51.0398 226.376 51.7188 226.376 52.4801C226.376 53.2415 226.479 53.9205 226.683 54.517C226.893 55.1136 227.203 55.5852 227.612 55.9318C228.027 56.2727 228.538 56.4432 229.146 56.4432ZM244.973 45.9091V48.6364H236.893V45.9091H244.973ZM238.743 59V44.9631C238.743 44.0142 238.928 43.2273 239.297 42.6023C239.672 41.9773 240.183 41.5085 240.831 41.196C241.479 40.8835 242.214 40.7273 243.038 40.7273C243.595 40.7273 244.104 40.7699 244.564 40.8551C245.03 40.9403 245.376 41.017 245.604 41.0852L244.956 43.8125C244.814 43.767 244.638 43.7244 244.428 43.6847C244.223 43.6449 244.013 43.625 243.797 43.625C243.263 43.625 242.891 43.75 242.68 44C242.47 44.2443 242.365 44.5881 242.365 45.0312V59H238.743ZM247.191 59V45.9091H250.822V59H247.191ZM249.015 44.2216C248.475 44.2216 248.012 44.0426 247.626 43.6847C247.245 43.321 247.055 42.8864 247.055 42.3807C247.055 41.8807 247.245 41.4517 247.626 41.0938C248.012 40.7301 248.475 40.5483 249.015 40.5483C249.555 40.5483 250.015 40.7301 250.396 41.0938C250.782 41.4517 250.975 41.8807 250.975 42.3807C250.975 42.8864 250.782 43.321 250.396 43.6847C250.015 44.0426 249.555 44.2216 249.015 44.2216ZM264.622 49.642L261.298 49.8466C261.241 49.5625 261.119 49.3068 260.932 49.0795C260.744 48.8466 260.497 48.6619 260.19 48.5256C259.889 48.3835 259.528 48.3125 259.108 48.3125C258.545 48.3125 258.071 48.4318 257.685 48.6705C257.298 48.9034 257.105 49.2159 257.105 49.608C257.105 49.9205 257.23 50.1847 257.48 50.4006C257.73 50.6165 258.159 50.7898 258.767 50.9205L261.136 51.3977C262.409 51.6591 263.358 52.0795 263.983 52.6591C264.608 53.2386 264.92 54 264.92 54.9432C264.92 55.8011 264.668 56.554 264.162 57.2017C263.662 57.8494 262.974 58.3551 262.099 58.7188C261.23 59.0767 260.227 59.2557 259.091 59.2557C257.358 59.2557 255.977 58.8949 254.949 58.1733C253.926 57.446 253.327 56.4574 253.151 55.2074L256.722 55.0199C256.83 55.5483 257.091 55.9517 257.506 56.2301C257.92 56.5028 258.452 56.6392 259.099 56.6392C259.736 56.6392 260.247 56.517 260.634 56.2727C261.026 56.0227 261.224 55.7017 261.23 55.3097C261.224 54.9801 261.085 54.7102 260.812 54.5C260.54 54.2841 260.119 54.1193 259.551 54.0057L257.284 53.554C256.006 53.2983 255.054 52.8551 254.429 52.2244C253.81 51.5937 253.5 50.7898 253.5 49.8125C253.5 48.9716 253.727 48.2472 254.182 47.6392C254.642 47.0312 255.287 46.5625 256.116 46.233C256.952 45.9034 257.929 45.7386 259.048 45.7386C260.702 45.7386 262.003 46.0881 262.952 46.7869C263.906 47.4858 264.463 48.4375 264.622 49.642ZM278.099 49.642L274.775 49.8466C274.718 49.5625 274.596 49.3068 274.408 49.0795C274.221 48.8466 273.974 48.6619 273.667 48.5256C273.366 48.3835 273.005 48.3125 272.585 48.3125C272.022 48.3125 271.548 48.4318 271.161 48.6705C270.775 48.9034 270.582 49.2159 270.582 49.608C270.582 49.9205 270.707 50.1847 270.957 50.4006C271.207 50.6165 271.636 50.7898 272.244 50.9205L274.613 51.3977C275.886 51.6591 276.835 52.0795 277.46 52.6591C278.085 53.2386 278.397 54 278.397 54.9432C278.397 55.8011 278.144 56.554 277.638 57.2017C277.138 57.8494 276.451 58.3551 275.576 58.7188C274.707 59.0767 273.704 59.2557 272.567 59.2557C270.835 59.2557 269.454 58.8949 268.425 58.1733C267.403 57.446 266.803 56.4574 266.627 55.2074L270.198 55.0199C270.306 55.5483 270.567 55.9517 270.982 56.2301C271.397 56.5028 271.928 56.6392 272.576 56.6392C273.212 56.6392 273.724 56.517 274.11 56.2727C274.502 56.0227 274.701 55.7017 274.707 55.3097C274.701 54.9801 274.562 54.7102 274.289 54.5C274.016 54.2841 273.596 54.1193 273.028 54.0057L270.761 53.554C269.482 53.2983 268.531 52.8551 267.906 52.2244C267.286 51.5937 266.977 50.7898 266.977 49.8125C266.977 48.9716 267.204 48.2472 267.658 47.6392C268.119 47.0312 268.763 46.5625 269.593 46.233C270.428 45.9034 271.406 45.7386 272.525 45.7386C274.178 45.7386 275.479 46.0881 276.428 46.7869C277.383 47.4858 277.94 48.4375 278.099 49.642ZM280.683 59V45.9091H284.314V59H280.683ZM282.507 44.2216C281.967 44.2216 281.504 44.0426 281.118 43.6847C280.737 43.321 280.547 42.8864 280.547 42.3807C280.547 41.8807 280.737 41.4517 281.118 41.0938C281.504 40.7301 281.967 40.5483 282.507 40.5483C283.047 40.5483 283.507 40.7301 283.888 41.0938C284.274 41.4517 284.467 41.8807 284.467 42.3807C284.467 42.8864 284.274 43.321 283.888 43.6847C283.507 44.0426 283.047 44.2216 282.507 44.2216ZM293.137 59.2557C291.813 59.2557 290.668 58.9744 289.702 58.4119C288.742 57.8437 288.001 57.054 287.478 56.0426C286.955 55.0256 286.694 53.8466 286.694 52.5057C286.694 51.1534 286.955 49.9716 287.478 48.9602C288.001 47.9432 288.742 47.1534 289.702 46.5909C290.668 46.0227 291.813 45.7386 293.137 45.7386C294.461 45.7386 295.603 46.0227 296.563 46.5909C297.529 47.1534 298.273 47.9432 298.796 48.9602C299.319 49.9716 299.58 51.1534 299.58 52.5057C299.58 53.8466 299.319 55.0256 298.796 56.0426C298.273 57.054 297.529 57.8437 296.563 58.4119C295.603 58.9744 294.461 59.2557 293.137 59.2557ZM293.154 56.4432C293.756 56.4432 294.259 56.2727 294.663 55.9318C295.066 55.5852 295.37 55.1136 295.575 54.517C295.785 53.9205 295.89 53.2415 295.89 52.4801C295.89 51.7188 295.785 51.0398 295.575 50.4432C295.37 49.8466 295.066 49.375 294.663 49.0284C294.259 48.6818 293.756 48.5085 293.154 48.5085C292.546 48.5085 292.035 48.6818 291.62 49.0284C291.211 49.375 290.901 49.8466 290.691 50.4432C290.487 51.0398 290.384 51.7188 290.384 52.4801C290.384 53.2415 290.487 53.9205 290.691 54.517C290.901 55.1136 291.211 55.5852 291.62 55.9318C292.035 56.2727 292.546 56.4432 293.154 56.4432ZM305.572 51.4318V59H301.941V45.9091H305.401V48.2188H305.555C305.844 47.4574 306.33 46.8551 307.012 46.4119C307.694 45.9631 308.521 45.7386 309.492 45.7386C310.401 45.7386 311.194 45.9375 311.87 46.3352C312.546 46.733 313.072 47.3011 313.447 48.0398C313.822 48.7727 314.009 49.6477 314.009 50.6648V59H310.379V51.3125C310.384 50.5114 310.18 49.8864 309.765 49.4375C309.35 48.983 308.779 48.7557 308.052 48.7557C307.563 48.7557 307.131 48.8608 306.756 49.071C306.387 49.2812 306.097 49.5881 305.887 49.9915C305.683 50.3892 305.577 50.8693 305.572 51.4318ZM320.604 59.2472C319.768 59.2472 319.024 59.1023 318.371 58.8125C317.717 58.517 317.2 58.0824 316.82 57.5085C316.445 56.929 316.257 56.2074 316.257 55.3438C316.257 54.6165 316.391 54.0057 316.658 53.5114C316.925 53.017 317.288 52.6193 317.749 52.3182C318.209 52.017 318.732 51.7898 319.317 51.6364C319.908 51.483 320.527 51.375 321.175 51.3125C321.936 51.233 322.55 51.1591 323.016 51.0909C323.482 51.017 323.82 50.9091 324.03 50.767C324.24 50.625 324.345 50.4148 324.345 50.1364V50.0852C324.345 49.5455 324.175 49.1278 323.834 48.8324C323.499 48.5369 323.021 48.3892 322.402 48.3892C321.749 48.3892 321.229 48.5341 320.842 48.8239C320.456 49.108 320.2 49.4659 320.075 49.8977L316.717 49.625C316.888 48.8295 317.223 48.142 317.723 47.5625C318.223 46.9773 318.868 46.5284 319.658 46.2159C320.453 45.8977 321.374 45.7386 322.419 45.7386C323.146 45.7386 323.842 45.8239 324.507 45.9943C325.178 46.1648 325.771 46.429 326.288 46.7869C326.811 47.1449 327.223 47.6051 327.524 48.1676C327.825 48.7244 327.976 49.392 327.976 50.1705V59H324.533V57.1847H324.43C324.22 57.5938 323.939 57.9545 323.587 58.267C323.234 58.5739 322.811 58.8153 322.317 58.9915C321.822 59.1619 321.251 59.2472 320.604 59.2472ZM321.643 56.7415C322.178 56.7415 322.649 56.6364 323.058 56.4261C323.467 56.2102 323.788 55.9205 324.021 55.5568C324.254 55.1932 324.371 54.7812 324.371 54.321V52.9318C324.257 53.0057 324.101 53.0739 323.902 53.1364C323.709 53.1932 323.49 53.2472 323.246 53.2983C323.001 53.3437 322.757 53.3864 322.513 53.4261C322.268 53.4602 322.047 53.4915 321.848 53.5199C321.422 53.5824 321.05 53.6818 320.732 53.8182C320.413 53.9545 320.166 54.1392 319.99 54.3722C319.814 54.5994 319.726 54.8835 319.726 55.2244C319.726 55.7188 319.905 56.0966 320.263 56.358C320.626 56.6136 321.087 56.7415 321.643 56.7415ZM334.423 41.5455V59H330.793V41.5455H334.423Z" fill="#AB0606"/>
<g clip-path="url(#clip0_1_15)">
<path d="M64 15.7C45.058 15.7 29.7 31.058 29.7 50C29.7 68.942 45.058 84.3 64 84.3C82.942 84.3 98.3 68.942 98.3 50C98.3 31.058 82.942 15.7 64 15.7ZM64 80.016C47.158 80.016 33.991 66.842 33.991 50C33.991 33.158 47.158 19.991 64 19.991C80.835 19.991 94.009 33.165 94.009 50C94.009 66.842 80.835 80.016 64 80.016ZM56.377 27.131H71.623L67.815 34.754H60.192L56.377 27.131ZM56.727 55.453L71.28 66.037L73.527 63.342L73.03 61.592L58.078 50.714L56.727 55.453ZM69.593 49.566L65.904 36.665H62.096L60.332 42.832L69.593 49.566ZM56.272 57.028L54.466 63.342L64 74.773L70.293 67.22L56.272 57.028ZM59.884 44.407L58.533 49.139L72.344 59.184L70.279 51.967L59.884 44.407Z" fill="black"/>
</g>
<defs>
<clipPath id="clip0_1_15">
<rect width="70" height="70" fill="white" transform="translate(29 15)"/>
</clipPath>
</defs>
</svg>
