<svg width="55" height="55" viewBox="0 0 55 55" fill="none" xmlns="http://www.w3.org/2000/svg">
<path d="M11.4659 48.9107C11.4659 45.5987 8.84855 42.8213 5.73307 42.8213C2.61758 42.8213 0 45.5987 0 48.9107C0 52.2227 2.61758 55 5.73307 55C8.84855 55 11.4659 52.2227 11.4659 48.9107Z" fill="black" fill-opacity="0.99"/>
<path d="M11.4659 27.5001C11.4659 24.1881 8.84855 21.4108 5.73307 21.4108C2.61758 21.4108 0 24.1881 0 27.5001C2.26829e-06 30.8121 2.61758 33.5893 5.73307 33.5893C8.84855 33.5893 11.4659 30.8121 11.4659 27.5001Z" fill="black" fill-opacity="0.99"/>
<path d="M11.4659 6.08916C11.4659 2.77715 8.84855 7.40543e-07 5.73307 0C2.61758 7.40543e-07 0 2.77715 0 6.08916C0 9.40117 2.61758 12.1785 5.73307 12.1785C8.84855 12.1785 11.4659 9.40117 11.4659 6.08916Z" fill="black" fill-opacity="0.99"/>
<path d="M19.7337 1.48059C19.1887 1.48059 18.649 1.59981 18.1454 1.83142C17.6418 2.06304 17.1843 2.40252 16.7989 2.83048C16.4135 3.25844 16.1078 3.7665 15.8993 4.32566C15.6907 4.88481 15.5834 5.4841 15.5834 6.08932C15.5834 7.31157 16.0206 8.48376 16.799 9.34802C17.5773 10.2123 18.633 10.6978 19.7337 10.6978H50.8495C51.3946 10.6979 51.9343 10.5787 52.4378 10.3471C52.9414 10.1155 53.3989 9.77604 53.7844 9.3481C54.1698 8.92016 54.4755 8.41211 54.6841 7.85297C54.8927 7.29382 55 6.69454 55 6.08932C55.0001 5.48409 54.8927 4.88478 54.6841 4.32561C54.4756 3.76644 54.1698 3.25837 53.7844 2.8304C53.399 2.40244 52.9415 2.06296 52.4379 1.83136C51.9343 1.59976 51.3946 1.48057 50.8495 1.48059H19.7337Z" fill="black" fill-opacity="0.99"/>
<path d="M19.7337 22.8915C18.633 22.8915 17.5773 23.377 16.799 24.2413C16.0206 25.1056 15.5834 26.2777 15.5834 27.5C15.5834 28.7222 16.0206 29.8944 16.799 30.7587C17.5773 31.623 18.633 32.1085 19.7337 32.1085H50.8495C51.3946 32.1085 51.9343 31.9893 52.4378 31.7578C52.9414 31.5262 53.3989 31.1867 53.7844 30.7588C54.1698 30.3308 54.4755 29.8228 54.6841 29.2636C54.8927 28.7045 55 28.1052 55 27.5C55 26.8948 54.8927 26.2955 54.6841 25.7363C54.4755 25.1772 54.1698 24.6692 53.7844 24.2412C53.3989 23.8133 52.9414 23.4738 52.4378 23.2422C51.9343 23.0106 51.3946 22.8915 50.8495 22.8915H19.7337Z" fill="black" fill-opacity="0.99"/>
<path d="M19.7337 44.302C18.633 44.302 17.5773 44.7876 16.799 45.6518C16.0206 46.5161 15.5834 47.6883 15.5834 48.9105C15.5834 50.1328 16.0206 51.305 16.799 52.1692C17.5773 53.0335 18.633 53.519 19.7337 53.519H50.8495C51.3946 53.5191 51.9343 53.3999 52.4378 53.1683C52.9414 52.9367 53.3989 52.5972 53.7844 52.1693C54.1698 51.7414 54.4755 51.2333 54.6841 50.6742C54.8927 50.115 55 49.5157 55 48.9105C55 48.3053 54.8927 47.706 54.6841 47.1469C54.4755 46.5877 54.1698 46.0797 53.7844 45.6517C53.3989 45.2238 52.9414 44.8843 52.4378 44.6528C51.9343 44.4212 51.3946 44.302 50.8495 44.302H19.7337Z" fill="black" fill-opacity="0.99"/>
</svg>
