<svg width="27" height="27" viewBox="0 0 27 27" fill="none" xmlns="http://www.w3.org/2000/svg">
<path d="M5.62873 24.0107C5.62873 22.3848 4.34384 21.0214 2.81441 21.0214C1.28499 21.0214 0 22.3848 0 24.0107C0 25.6366 1.28499 27 2.81441 27C4.34384 27 5.62873 25.6366 5.62873 24.0107Z" fill="black" fill-opacity="0.99"/>
<path d="M5.62873 13.5001C5.62873 11.8742 4.34384 10.5107 2.81441 10.5107C1.28499 10.5107 0 11.8742 0 13.5001C1.11353e-06 15.126 1.28499 16.4893 2.81441 16.4893C4.34383 16.4893 5.62873 15.126 5.62873 13.5001Z" fill="black" fill-opacity="0.99"/>
<path d="M5.62873 2.98922C5.62873 1.36333 4.34384 3.63539e-07 2.81441 0C1.28499 3.63539e-07 0 1.36333 0 2.98922C0 4.61512 1.28499 5.97855 2.81441 5.97855C4.34384 5.97855 5.62873 4.61512 5.62873 2.98922Z" fill="black" fill-opacity="0.99"/>
<path d="M9.68746 0.726807C9.41989 0.726809 9.15495 0.785331 8.90775 0.899033C8.66055 1.01273 8.43594 1.17939 8.24675 1.38948C8.05755 1.59957 7.90748 1.84898 7.80509 2.12348C7.70271 2.39797 7.65001 2.69217 7.65002 2.98927C7.65003 3.58929 7.86469 4.16473 8.24678 4.589C8.62887 5.01327 9.1471 5.25163 9.68746 5.25164H24.9625C25.2301 5.25165 25.495 5.19314 25.7422 5.07945C25.9894 4.96576 26.214 4.79912 26.4032 4.58904C26.5924 4.37896 26.7425 4.12955 26.8449 3.85506C26.9473 3.58058 27 3.28638 27 2.98927C27 2.69216 26.9473 2.39795 26.845 2.12345C26.7426 1.84895 26.5925 1.59953 26.4033 1.38944C26.2141 1.17935 25.9894 1.0127 25.7422 0.899003C25.495 0.785307 25.2301 0.726795 24.9625 0.726807H9.68746Z" fill="black" fill-opacity="0.99"/>
<path d="M9.68746 11.2377C9.1471 11.2377 8.62887 11.476 8.24678 11.9003C7.86469 12.3246 7.65003 12.9 7.65002 13.5C7.65003 14.1 7.86469 14.6755 8.24678 15.0998C8.62887 15.524 9.1471 15.7624 9.68746 15.7624H24.9625C25.2301 15.7624 25.495 15.7039 25.7422 15.5902C25.9894 15.4765 26.214 15.3099 26.4032 15.0998C26.5924 14.8897 26.7425 14.6403 26.8449 14.3658C26.9473 14.0913 27 13.7971 27 13.5C27 13.2029 26.9473 12.9087 26.8449 12.6342C26.7425 12.3598 26.5924 12.1103 26.4032 11.9003C26.214 11.6902 25.9894 11.5235 25.7422 11.4099C25.495 11.2962 25.2301 11.2377 24.9625 11.2377H9.68746Z" fill="black" fill-opacity="0.99"/>
<path d="M9.68746 21.7483C9.1471 21.7483 8.62887 21.9867 8.24678 22.4109C7.86469 22.8352 7.65003 23.4106 7.65002 24.0107C7.65003 24.6107 7.86469 25.1861 8.24678 25.6104C8.62887 26.0347 9.1471 26.273 9.68746 26.273H24.9625C25.2301 26.273 25.495 26.2145 25.7422 26.1008C25.9894 25.9871 26.214 25.8205 26.4032 25.6104C26.5924 25.4003 26.7425 25.1509 26.8449 24.8764C26.9473 24.602 27 24.3078 27 24.0107C27 23.7135 26.9473 23.4194 26.8449 23.1449C26.7425 22.8704 26.5924 22.621 26.4032 22.4109C26.214 22.2008 25.9894 22.0342 25.7422 21.9205C25.495 21.8068 25.2301 21.7483 24.9625 21.7483H9.68746Z" fill="black" fill-opacity="0.99"/>
</svg>
