<svg width="100" height="100" viewBox="0 0 100 100" fill="none" xmlns="http://www.w3.org/2000/svg">
<path d="M20.8472 88.9285C20.8472 82.9067 16.0883 77.8569 10.4238 77.8569C4.75923 77.8569 0 82.9067 0 88.9285C0 94.9503 4.75923 100 10.4238 100C16.0883 100 20.8472 94.9503 20.8472 88.9285Z" fill="black" fill-opacity="0.99"/>
<path d="M20.8472 50.0003C20.8472 43.9785 16.0883 38.9287 10.4238 38.9287C4.75923 38.9287 0 43.9785 0 50.0003C4.12417e-06 56.0221 4.75923 61.0715 10.4238 61.0715C16.0883 61.0715 20.8472 56.0221 20.8472 50.0003Z" fill="black" fill-opacity="0.99"/>
<path d="M20.8472 11.0712C20.8472 5.04937 16.0883 1.34644e-06 10.4238 0C4.75923 1.34644e-06 0 5.04937 0 11.0712C0 17.093 4.75923 22.1428 10.4238 22.1428C16.0883 22.1428 20.8472 17.093 20.8472 11.0712Z" fill="black" fill-opacity="0.99"/>
<path d="M35.8795 2.69189C34.8885 2.6919 33.9072 2.90865 32.9917 3.32977C32.0761 3.75089 31.2442 4.36812 30.5435 5.14624C29.8428 5.92435 29.287 6.8481 28.9078 7.86474C28.5286 8.88139 28.3334 9.97101 28.3334 11.0714C28.3334 13.2937 29.1285 15.4249 30.5436 16.9963C31.9588 18.5677 33.8782 19.4505 35.8795 19.4505H92.4537C93.4447 19.4506 94.426 19.2339 95.3416 18.8128C96.2571 18.3917 97.089 17.7745 97.7898 16.9965C98.4905 16.2184 99.0464 15.2947 99.4257 14.278C99.8049 13.2614 100 12.1718 100 11.0714C100 9.97098 99.805 8.88132 99.4258 7.86465C99.0465 6.84798 98.4907 5.92422 97.7899 5.1461C97.0891 4.36798 96.2572 3.75075 95.3416 3.32966C94.426 2.90856 93.4447 2.69185 92.4537 2.69189H35.8795Z" fill="black" fill-opacity="0.99"/>
<path d="M35.8795 41.621C33.8782 41.621 31.9588 42.5038 30.5436 44.0752C29.1285 45.6466 28.3334 47.7778 28.3334 50.0001C28.3334 52.2224 29.1285 54.3536 30.5436 55.925C31.9588 57.4964 33.8782 58.3792 35.8795 58.3792H92.4537C93.4447 58.3793 94.426 58.1626 95.3416 57.7415C96.2571 57.3204 97.089 56.7032 97.7898 55.9251C98.4905 55.1471 99.0464 54.2233 99.4257 53.2067C99.8049 52.1901 100 51.1005 100 50.0001C100 48.8997 99.8049 47.8101 99.4257 46.7935C99.0464 45.7768 98.4905 44.8531 97.7898 44.075C97.089 43.297 96.2571 42.6798 95.3416 42.2587C94.426 41.8376 93.4447 41.6209 92.4537 41.621H35.8795Z" fill="black" fill-opacity="0.99"/>
<path d="M35.8795 80.5492C33.8782 80.5492 31.9588 81.432 30.5436 83.0034C29.1285 84.5748 28.3334 86.706 28.3334 88.9283C28.3334 91.1506 29.1285 93.2818 30.5436 94.8532C31.9588 96.4246 33.8782 97.3074 35.8795 97.3074H92.4537C93.4447 97.3075 94.426 97.0908 95.3416 96.6697C96.2571 96.2486 97.089 95.6314 97.7898 94.8534C98.4905 94.0753 99.0464 93.1516 99.4257 92.1349C99.8049 91.1183 100 90.0287 100 88.9283C100 87.8279 99.8049 86.7383 99.4257 85.7217C99.0464 84.7051 98.4905 83.7813 97.7898 83.0033C97.089 82.2252 96.2571 81.608 95.3416 81.1869C94.426 80.7658 93.4447 80.5492 92.4537 80.5492H35.8795Z" fill="black" fill-opacity="0.99"/>
</svg>
