<svg version="1.1" id="Layer_1" xmlns="http://www.w3.org/2000/svg" x="0" y="0" width="820" height="450.276" xml:space="preserve"><style>.st0{fill:none;stroke:#333;stroke-width:4.102;stroke-miterlimit:10}.st1{fill:#333}.st10{fill:#fff}.st11{fill:#faa31b}.st12{fill:none}</style><path class="st1" d="M144.195 417.933h3.381c2.85 0 4.819 1.956 4.819 4.508v.026c0 2.552-1.969 4.534-4.819 4.534h-3.381v-9.068zm1.593 1.451v6.166h1.788c1.904 0 3.148-1.282 3.148-3.057v-.026c0-1.774-1.244-3.083-3.148-3.083h-1.788zM157.708 417.869h1.477l3.99 9.133h-1.684l-.92-2.189h-4.288l-.933 2.189h-1.632l3.99-9.133zm2.28 5.531l-1.567-3.627-1.555 3.627h3.122zM166.596 419.41h-2.876v-1.477h7.358v1.477h-2.876v7.592h-1.606v-7.592zM175.613 417.869h1.477l3.99 9.133h-1.684l-.92-2.189h-4.288l-.933 2.189h-1.632l3.99-9.133zm2.28 5.531l-1.567-3.627-1.555 3.627h3.122zM183.439 417.933h4.068c1.036 0 1.853.285 2.371.804.402.401.609.894.609 1.502v.026c0 1.088-.622 1.671-1.296 2.021 1.062.363 1.801.972 1.801 2.202v.026c0 1.619-1.334 2.487-3.355 2.487h-4.197v-9.068zm5.454 2.566c0-.713-.57-1.153-1.594-1.153h-2.293v2.409h2.177c1.023 0 1.71-.401 1.71-1.23v-.026zm-1.36 2.603h-2.526v2.487h2.643c1.088 0 1.749-.428 1.749-1.243v-.026c-.001-.765-.609-1.218-1.866-1.218zM196.81 417.869h1.477l3.99 9.133h-1.684l-.92-2.189h-4.288l-.933 2.189h-1.632l3.99-9.133zm2.28 5.531l-1.567-3.627-1.555 3.627h3.122zM203.872 425.68l.958-1.14c.868.751 1.749 1.179 2.863 1.179.985 0 1.606-.467 1.606-1.141v-.025c0-.647-.363-.998-2.047-1.387-1.93-.466-3.019-1.036-3.019-2.707v-.026c0-1.555 1.296-2.63 3.096-2.63 1.322 0 2.371.402 3.291 1.141l-.855 1.204c-.816-.608-1.632-.933-2.461-.933-.933 0-1.477.479-1.477 1.075v.026c0 .699.415 1.011 2.164 1.425 1.917.467 2.902 1.153 2.902 2.656v.025c0 1.697-1.334 2.708-3.239 2.708a5.576 5.576 0 0 1-3.782-1.45zM213.576 417.933h6.723v1.425h-5.13v2.358h4.547v1.425h-4.547v2.436h5.195v1.425h-6.788v-9.069z"/><linearGradient id="SVGID_1_" gradientUnits="userSpaceOnUse" x1="135.284" y1="405.944" x2="285.164" y2="329.814" gradientTransform="matrix(.9863 0 0 1.1211 .058 9.375)"><stop offset="0" stop-color="#17c9c0"/><stop offset=".168" stop-color="#00a9d7"/><stop offset=".564" stop-color="#1cd0bb"/><stop offset="1" stop-color="#0fbec8"/></linearGradient><path d="M290.341 444.271H124.463v-44.955h165.878v44.955zm-162.878-3h159.878v-38.955H127.463v38.955z" fill="url(#SVGID_1_)"/><linearGradient id="SVGID_2_" gradientUnits="userSpaceOnUse" x1="135.284" y1="320.15" x2="285.164" y2="244.019" gradientTransform="matrix(.9863 0 0 1.1211 .058 9.375)"><stop offset="0" stop-color="#17c9c0"/><stop offset=".168" stop-color="#00a9d7"/><stop offset=".564" stop-color="#1cd0bb"/><stop offset="1" stop-color="#0fbec8"/></linearGradient><path d="M290.341 348.089H124.463v-44.955h165.878v44.955zm-162.878-3h159.878v-38.955H127.463v38.955z" fill="url(#SVGID_2_)"/><path class="st1" d="M144.195 321.752h1.697l2.759 4.288 2.759-4.288h1.697v9.068h-1.594v-6.503l-2.863 4.274h-.052l-2.837-4.249v6.478h-1.567v-9.068zM156.334 321.752h1.594v9.068h-1.594v-9.068zM160.753 326.312v-.026c0-2.578 1.93-4.689 4.677-4.689 1.671 0 2.682.583 3.55 1.412l-1.023 1.179c-.725-.674-1.503-1.127-2.539-1.127-1.723 0-2.992 1.425-2.992 3.199v.026c0 1.774 1.257 3.213 2.992 3.213 1.114 0 1.827-.44 2.604-1.166l1.023 1.036c-.946.984-1.982 1.606-3.679 1.606-2.644 0-4.613-2.059-4.613-4.663zM171.519 321.752h4.042c1.14 0 2.034.337 2.617.907.479.492.751 1.166.751 1.956v.025c0 1.49-.894 2.384-2.15 2.747l2.448 3.433h-1.891l-2.228-3.161h-1.995v3.161h-1.593v-9.068zm3.926 4.495c1.14 0 1.865-.596 1.865-1.516v-.025c0-.972-.7-1.503-1.878-1.503h-2.319v3.044h2.332zM181.288 326.312v-.026c0-2.552 1.969-4.689 4.754-4.689 2.785 0 4.728 2.111 4.728 4.663v.026c0 2.552-1.969 4.689-4.754 4.689-2.785 0-4.728-2.111-4.728-4.663zm7.812 0v-.026c0-1.762-1.282-3.226-3.083-3.226-1.801 0-3.057 1.438-3.057 3.199v.026c0 1.762 1.282 3.213 3.083 3.213 1.8.001 3.057-1.424 3.057-3.186zM192.833 329.499l.958-1.14c.868.751 1.749 1.179 2.863 1.179.985 0 1.606-.467 1.606-1.141v-.025c0-.647-.363-.998-2.047-1.387-1.93-.466-3.019-1.036-3.019-2.707v-.026c0-1.555 1.296-2.63 3.096-2.63 1.322 0 2.371.402 3.291 1.141l-.855 1.204c-.816-.608-1.632-.933-2.461-.933-.933 0-1.477.479-1.477 1.075v.026c0 .699.415 1.011 2.164 1.425 1.917.467 2.902 1.153 2.902 2.656v.025c0 1.697-1.334 2.708-3.239 2.708a5.581 5.581 0 0 1-3.782-1.45zM202.537 321.752h6.723v1.425h-5.13v2.358h4.547v1.425h-4.547v2.436h5.195v1.425h-6.788v-9.069zM212.021 321.752h4.042c1.14 0 2.034.337 2.617.907.479.492.751 1.166.751 1.956v.025c0 1.49-.894 2.384-2.15 2.747l2.448 3.433h-1.891l-2.228-3.161h-1.995v3.161h-1.593v-9.068zm3.925 4.495c1.14 0 1.865-.596 1.865-1.516v-.025c0-.972-.7-1.503-1.878-1.503h-2.319v3.044h2.332zM221.155 321.752h1.762l2.734 6.97 2.72-6.97h1.723l-3.757 9.133h-1.412l-3.77-9.133zM232.544 321.752h1.594v9.068h-1.594v-9.068zM236.962 326.312v-.026c0-2.578 1.93-4.689 4.677-4.689 1.671 0 2.682.583 3.55 1.412l-1.023 1.179c-.725-.674-1.503-1.127-2.539-1.127-1.723 0-2.992 1.425-2.992 3.199v.026c0 1.774 1.257 3.213 2.992 3.213 1.114 0 1.827-.44 2.604-1.166l1.023 1.036c-.946.984-1.982 1.606-3.679 1.606-2.644 0-4.613-2.059-4.613-4.663zM247.729 321.752h6.723v1.425h-5.13v2.358h4.547v1.425h-4.547v2.436h5.195v1.425h-6.788v-9.069zM261.903 321.752h4.068c1.036 0 1.853.285 2.371.804.402.401.609.894.609 1.502v.026c0 1.088-.622 1.671-1.296 2.021 1.062.363 1.801.972 1.801 2.202v.026c0 1.619-1.334 2.487-3.355 2.487h-4.197v-9.068zm5.453 2.565c0-.713-.57-1.153-1.594-1.153h-2.293v2.409h2.177c1.023 0 1.71-.401 1.71-1.23v-.026zm-1.36 2.604h-2.526v2.487h2.643c1.088 0 1.749-.428 1.749-1.243v-.026c0-.765-.609-1.218-1.866-1.218zM188.104 348.082h4.102v43.884h-4.102z"/><path class="st1" d="M196.291 390.17l-6.137 10.627-6.136-10.627z"/><g><path class="st1" d="M222.599 355.421h4.102v43.888h-4.102z"/><path class="st1" d="M230.786 357.216l-6.136-10.627-6.137 10.627z"/></g><g><path class="st1" d="M315.56 417.933h3.381c2.85 0 4.819 1.956 4.819 4.508v.026c0 2.552-1.969 4.534-4.819 4.534h-3.381v-9.068zm1.593 1.451v6.166h1.788c1.904 0 3.148-1.282 3.148-3.057v-.026c0-1.774-1.244-3.083-3.148-3.083h-1.788zM329.073 417.869h1.477l3.99 9.133h-1.684l-.92-2.189h-4.288l-.933 2.189h-1.632l3.99-9.133zm2.28 5.531l-1.567-3.627-1.555 3.627h3.122zM337.961 419.41h-2.876v-1.477h7.358v1.477h-2.876v7.592h-1.606v-7.592zM346.979 417.869h1.477l3.99 9.133h-1.684l-.92-2.189h-4.288l-.933 2.189h-1.632l3.99-9.133zm2.28 5.531l-1.567-3.627-1.555 3.627h3.122zM354.805 417.933h4.068c1.036 0 1.853.285 2.371.804.402.401.609.894.609 1.502v.026c0 1.088-.622 1.671-1.296 2.021 1.062.363 1.801.972 1.801 2.202v.026c0 1.619-1.334 2.487-3.355 2.487h-4.197v-9.068zm5.454 2.566c0-.713-.57-1.153-1.594-1.153h-2.293v2.409h2.177c1.023 0 1.71-.401 1.71-1.23v-.026zm-1.361 2.603h-2.526v2.487h2.643c1.088 0 1.749-.428 1.749-1.243v-.026c0-.765-.609-1.218-1.866-1.218zM368.175 417.869h1.477l3.99 9.133h-1.684l-.92-2.189h-4.288l-.933 2.189h-1.632l3.99-9.133zm2.28 5.531l-1.567-3.627-1.555 3.627h3.122zM375.237 425.68l.958-1.14c.868.751 1.749 1.179 2.863 1.179.985 0 1.606-.467 1.606-1.141v-.025c0-.647-.363-.998-2.047-1.387-1.93-.466-3.019-1.036-3.019-2.707v-.026c0-1.555 1.296-2.63 3.096-2.63 1.322 0 2.371.402 3.291 1.141l-.855 1.204c-.816-.608-1.632-.933-2.461-.933-.933 0-1.477.479-1.477 1.075v.026c0 .699.415 1.011 2.164 1.425 1.917.467 2.902 1.153 2.902 2.656v.025c0 1.697-1.334 2.708-3.239 2.708a5.578 5.578 0 0 1-3.782-1.45zM384.941 417.933h6.723v1.425h-5.13v2.358h4.547v1.425h-4.547v2.436h5.195v1.425h-6.788v-9.069z"/><linearGradient id="SVGID_3_" gradientUnits="userSpaceOnUse" x1="309.03" y1="405.944" x2="458.91" y2="329.814" gradientTransform="matrix(.9863 0 0 1.1211 .058 9.375)"><stop offset="0" stop-color="#17c9c0"/><stop offset=".168" stop-color="#00a9d7"/><stop offset=".564" stop-color="#1cd0bb"/><stop offset="1" stop-color="#0fbec8"/></linearGradient><path d="M461.706 444.271H295.829v-44.955h165.878v44.955zm-162.877-3h159.878v-38.955H298.829v38.955z" fill="url(#SVGID_3_)"/><linearGradient id="SVGID_4_" gradientUnits="userSpaceOnUse" x1="309.03" y1="320.15" x2="458.91" y2="244.019" gradientTransform="matrix(.9863 0 0 1.1211 .058 9.375)"><stop offset="0" stop-color="#17c9c0"/><stop offset=".168" stop-color="#00a9d7"/><stop offset=".564" stop-color="#1cd0bb"/><stop offset="1" stop-color="#0fbec8"/></linearGradient><path d="M461.706 348.089H295.829v-44.955h165.878v44.955zm-162.877-3h159.878v-38.955H298.829v38.955z" fill="url(#SVGID_4_)"/><g><path class="st1" d="M315.56 321.752h1.697l2.759 4.288 2.759-4.288h1.697v9.068h-1.594v-6.503l-2.863 4.274h-.052l-2.837-4.249v6.478h-1.567v-9.068zM327.7 321.752h1.594v9.068H327.7v-9.068zM332.118 326.312v-.026c0-2.578 1.93-4.689 4.677-4.689 1.671 0 2.682.583 3.55 1.412l-1.023 1.179c-.725-.674-1.503-1.127-2.539-1.127-1.723 0-2.992 1.425-2.992 3.199v.026c0 1.774 1.257 3.213 2.992 3.213 1.114 0 1.827-.44 2.604-1.166l1.023 1.036c-.946.984-1.982 1.606-3.679 1.606-2.644 0-4.613-2.059-4.613-4.663zM342.885 321.752h4.042c1.14 0 2.034.337 2.617.907.479.492.751 1.166.751 1.956v.025c0 1.49-.894 2.384-2.15 2.747l2.448 3.433h-1.891l-2.228-3.161h-1.995v3.161h-1.593v-9.068zm3.925 4.495c1.14 0 1.865-.596 1.865-1.516v-.025c0-.972-.7-1.503-1.878-1.503h-2.319v3.044h2.332zM352.654 326.312v-.026c0-2.552 1.969-4.689 4.754-4.689 2.785 0 4.728 2.111 4.728 4.663v.026c0 2.552-1.969 4.689-4.754 4.689-2.785 0-4.728-2.111-4.728-4.663zm7.811 0v-.026c0-1.762-1.282-3.226-3.083-3.226-1.801 0-3.057 1.438-3.057 3.199v.026c0 1.762 1.282 3.213 3.083 3.213 1.801.001 3.057-1.424 3.057-3.186zM364.198 329.499l.958-1.14c.868.751 1.749 1.179 2.863 1.179.985 0 1.606-.467 1.606-1.141v-.025c0-.647-.363-.998-2.047-1.387-1.93-.466-3.019-1.036-3.019-2.707v-.026c0-1.555 1.296-2.63 3.096-2.63 1.322 0 2.371.402 3.291 1.141l-.855 1.204c-.816-.608-1.632-.933-2.461-.933-.933 0-1.477.479-1.477 1.075v.026c0 .699.415 1.011 2.164 1.425 1.917.467 2.902 1.153 2.902 2.656v.025c0 1.697-1.334 2.708-3.239 2.708a5.581 5.581 0 0 1-3.782-1.45zM373.902 321.752h6.723v1.425h-5.13v2.358h4.547v1.425h-4.547v2.436h5.195v1.425h-6.788v-9.069zM383.386 321.752h4.042c1.14 0 2.034.337 2.617.907.479.492.751 1.166.751 1.956v.025c0 1.49-.894 2.384-2.15 2.747l2.448 3.433h-1.891l-2.228-3.161h-1.995v3.161h-1.593v-9.068zm3.926 4.495c1.14 0 1.865-.596 1.865-1.516v-.025c0-.972-.7-1.503-1.878-1.503h-2.319v3.044h2.332zM392.521 321.752h1.762l2.734 6.97 2.72-6.97h1.723l-3.757 9.133h-1.412l-3.77-9.133zM403.909 321.752h1.594v9.068h-1.594v-9.068zM408.327 326.312v-.026c0-2.578 1.93-4.689 4.677-4.689 1.671 0 2.682.583 3.55 1.412l-1.023 1.179c-.725-.674-1.503-1.127-2.539-1.127-1.723 0-2.992 1.425-2.992 3.199v.026c0 1.774 1.257 3.213 2.992 3.213 1.114 0 1.827-.44 2.604-1.166l1.023 1.036c-.946.984-1.982 1.606-3.679 1.606-2.644 0-4.613-2.059-4.613-4.663zM419.094 321.752h6.723v1.425h-5.13v2.358h4.547v1.425h-4.547v2.436h5.195v1.425h-6.788v-9.069zM432.866 326.312v-.026c0-2.578 1.93-4.689 4.677-4.689 1.671 0 2.682.583 3.55 1.412l-1.023 1.179c-.725-.674-1.503-1.127-2.539-1.127-1.723 0-2.992 1.425-2.992 3.199v.026c0 1.774 1.257 3.213 2.992 3.213 1.114 0 1.827-.44 2.604-1.166l1.023 1.036c-.946.984-1.982 1.606-3.679 1.606-2.644 0-4.613-2.059-4.613-4.663z"/></g><g><path class="st1" d="M359.47 348.082h4.102v43.884h-4.102z"/><path class="st1" d="M367.656 390.17l-6.136 10.627-6.136-10.627z"/><g><path class="st1" d="M393.964 355.421h4.102v43.888h-4.102z"/><path class="st1" d="M402.151 357.216l-6.136-10.627-6.136 10.627z"/></g></g></g><g><path class="st1" d="M486.926 417.933h3.381c2.85 0 4.819 1.956 4.819 4.508v.026c0 2.552-1.969 4.534-4.819 4.534h-3.381v-9.068zm1.593 1.451v6.166h1.788c1.904 0 3.148-1.282 3.148-3.057v-.026c0-1.774-1.244-3.083-3.148-3.083h-1.788zM500.438 417.869h1.477l3.99 9.133h-1.684l-.92-2.189h-4.288l-.933 2.189h-1.632l3.99-9.133zm2.281 5.531l-1.567-3.627-1.555 3.627h3.122zM509.327 419.41h-2.876v-1.477h7.358v1.477h-2.876v7.592h-1.606v-7.592zM518.344 417.869h1.477l3.99 9.133h-1.684l-.92-2.189h-4.288l-.933 2.189h-1.632l3.99-9.133zm2.28 5.531l-1.567-3.627-1.555 3.627h3.122zM526.17 417.933h4.068c1.036 0 1.853.285 2.371.804.402.401.609.894.609 1.502v.026c0 1.088-.622 1.671-1.296 2.021 1.062.363 1.801.972 1.801 2.202v.026c0 1.619-1.334 2.487-3.355 2.487h-4.197v-9.068zm5.454 2.566c0-.713-.57-1.153-1.594-1.153h-2.293v2.409h2.177c1.023 0 1.71-.401 1.71-1.23v-.026zm-1.36 2.603h-2.526v2.487h2.643c1.088 0 1.749-.428 1.749-1.243v-.026c-.001-.765-.609-1.218-1.866-1.218zM539.541 417.869h1.477l3.99 9.133h-1.684l-.92-2.189h-4.288l-.933 2.189h-1.632l3.99-9.133zm2.28 5.531l-1.567-3.627-1.555 3.627h3.122zM546.603 425.68l.958-1.14c.868.751 1.749 1.179 2.863 1.179.985 0 1.606-.467 1.606-1.141v-.025c0-.647-.363-.998-2.047-1.387-1.93-.466-3.019-1.036-3.019-2.707v-.026c0-1.555 1.296-2.63 3.096-2.63 1.322 0 2.371.402 3.291 1.141l-.855 1.204c-.816-.608-1.632-.933-2.461-.933-.933 0-1.477.479-1.477 1.075v.026c0 .699.415 1.011 2.164 1.425 1.917.467 2.902 1.153 2.902 2.656v.025c0 1.697-1.334 2.708-3.239 2.708a5.576 5.576 0 0 1-3.782-1.45zM556.307 417.933h6.723v1.425h-5.13v2.358h4.547v1.425H557.9v2.436h5.195v1.425h-6.788v-9.069z"/><linearGradient id="SVGID_5_" gradientUnits="userSpaceOnUse" x1="482.775" y1="405.944" x2="632.655" y2="329.814" gradientTransform="matrix(.9863 0 0 1.1211 .058 9.375)"><stop offset="0" stop-color="#17c9c0"/><stop offset=".168" stop-color="#00a9d7"/><stop offset=".564" stop-color="#1cd0bb"/><stop offset="1" stop-color="#0fbec8"/></linearGradient><path d="M633.072 444.271H467.194v-44.955h165.878v44.955zm-162.878-3h159.878v-38.955H470.194v38.955z" fill="url(#SVGID_5_)"/><linearGradient id="SVGID_6_" gradientUnits="userSpaceOnUse" x1="482.775" y1="320.15" x2="632.655" y2="244.019" gradientTransform="matrix(.9863 0 0 1.1211 .058 9.375)"><stop offset="0" stop-color="#17c9c0"/><stop offset=".168" stop-color="#00a9d7"/><stop offset=".564" stop-color="#1cd0bb"/><stop offset="1" stop-color="#0fbec8"/></linearGradient><path d="M633.072 348.089H467.194v-44.955h165.878v44.955zm-162.878-3h159.878v-38.955H470.194v38.955z" fill="url(#SVGID_6_)"/><g><path class="st1" d="M486.926 321.752h1.697l2.759 4.288 2.759-4.288h1.697v9.068h-1.594v-6.503l-2.863 4.274h-.052l-2.837-4.249v6.478h-1.567v-9.068zM499.065 321.752h1.594v9.068h-1.594v-9.068zM503.484 326.312v-.026c0-2.578 1.93-4.689 4.677-4.689 1.671 0 2.682.583 3.55 1.412l-1.023 1.179c-.725-.674-1.503-1.127-2.539-1.127-1.723 0-2.992 1.425-2.992 3.199v.026c0 1.774 1.257 3.213 2.992 3.213 1.114 0 1.827-.44 2.604-1.166l1.023 1.036c-.946.984-1.982 1.606-3.679 1.606-2.644 0-4.613-2.059-4.613-4.663zM514.25 321.752h4.042c1.14 0 2.034.337 2.617.907.479.492.751 1.166.751 1.956v.025c0 1.49-.894 2.384-2.15 2.747l2.448 3.433h-1.891l-2.228-3.161h-1.995v3.161h-1.593v-9.068zm3.926 4.495c1.14 0 1.865-.596 1.865-1.516v-.025c0-.972-.7-1.503-1.878-1.503h-2.319v3.044h2.332zM524.019 326.312v-.026c0-2.552 1.969-4.689 4.754-4.689 2.785 0 4.728 2.111 4.728 4.663v.026c0 2.552-1.969 4.689-4.754 4.689-2.785 0-4.728-2.111-4.728-4.663zm7.812 0v-.026c0-1.762-1.282-3.226-3.083-3.226-1.801 0-3.057 1.438-3.057 3.199v.026c0 1.762 1.282 3.213 3.083 3.213 1.8.001 3.057-1.424 3.057-3.186zM535.563 329.499l.958-1.14c.868.751 1.749 1.179 2.863 1.179.985 0 1.606-.467 1.606-1.141v-.025c0-.647-.363-.998-2.047-1.387-1.93-.466-3.019-1.036-3.019-2.707v-.026c0-1.555 1.296-2.63 3.096-2.63 1.322 0 2.371.402 3.291 1.141l-.855 1.204c-.816-.608-1.632-.933-2.461-.933-.933 0-1.477.479-1.477 1.075v.026c0 .699.415 1.011 2.164 1.425 1.917.467 2.902 1.153 2.902 2.656v.025c0 1.697-1.334 2.708-3.239 2.708a5.585 5.585 0 0 1-3.782-1.45zM545.268 321.752h6.723v1.425h-5.13v2.358h4.547v1.425h-4.547v2.436h5.195v1.425h-6.788v-9.069zM554.752 321.752h4.042c1.14 0 2.034.337 2.617.907.479.492.751 1.166.751 1.956v.025c0 1.49-.894 2.384-2.15 2.747l2.448 3.433h-1.891l-2.228-3.161h-1.995v3.161h-1.593v-9.068zm3.925 4.495c1.14 0 1.865-.596 1.865-1.516v-.025c0-.972-.7-1.503-1.878-1.503h-2.319v3.044h2.332zM563.886 321.752h1.762l2.734 6.97 2.72-6.97h1.723l-3.757 9.133h-1.412l-3.77-9.133zM575.275 321.752h1.594v9.068h-1.594v-9.068zM579.693 326.312v-.026c0-2.578 1.93-4.689 4.677-4.689 1.671 0 2.682.583 3.55 1.412l-1.023 1.179c-.725-.674-1.503-1.127-2.539-1.127-1.723 0-2.992 1.425-2.992 3.199v.026c0 1.774 1.257 3.213 2.992 3.213 1.114 0 1.827-.44 2.604-1.166l1.023 1.036c-.946.984-1.982 1.606-3.679 1.606-2.644 0-4.613-2.059-4.613-4.663zM590.459 321.752h6.723v1.425h-5.13v2.358h4.547v1.425h-4.547v2.436h5.195v1.425h-6.788v-9.069zM604.634 321.752h3.381c2.85 0 4.819 1.956 4.819 4.508v.026c0 2.552-1.969 4.534-4.819 4.534h-3.381v-9.068zm1.593 1.451v6.166h1.788c1.904 0 3.148-1.282 3.148-3.057v-.026c0-1.774-1.244-3.083-3.148-3.083h-1.788z"/></g><g><path class="st1" d="M530.835 348.082h4.102v43.884h-4.102z"/><path class="st1" d="M539.022 390.17l-6.137 10.627-6.136-10.627z"/><g><path class="st1" d="M565.33 355.421h4.102v43.888h-4.102z"/><path class="st1" d="M573.517 357.216l-6.136-10.627-6.137 10.627z"/></g></g></g><g><path class="st1" d="M658.291 417.933h3.381c2.85 0 4.819 1.956 4.819 4.508v.026c0 2.552-1.969 4.534-4.819 4.534h-3.381v-9.068zm1.593 1.451v6.166h1.788c1.904 0 3.148-1.282 3.148-3.057v-.026c0-1.774-1.244-3.083-3.148-3.083h-1.788zM671.804 417.869h1.477l3.99 9.133h-1.684l-.92-2.189h-4.288l-.933 2.189h-1.632l3.99-9.133zm2.28 5.531l-1.567-3.627-1.555 3.627h3.122zM680.692 419.41h-2.876v-1.477h7.358v1.477h-2.876v7.592h-1.606v-7.592zM689.71 417.869h1.477l3.99 9.133h-1.684l-.92-2.189h-4.288l-.933 2.189h-1.632l3.99-9.133zm2.28 5.531l-1.567-3.627-1.555 3.627h3.122zM697.536 417.933h4.068c1.036 0 1.853.285 2.371.804.402.401.609.894.609 1.502v.026c0 1.088-.622 1.671-1.296 2.021 1.062.363 1.801.972 1.801 2.202v.026c0 1.619-1.334 2.487-3.355 2.487h-4.197v-9.068zm5.454 2.566c0-.713-.57-1.153-1.594-1.153h-2.293v2.409h2.177c1.023 0 1.71-.401 1.71-1.23v-.026zm-1.361 2.603h-2.526v2.487h2.643c1.088 0 1.749-.428 1.749-1.243v-.026c0-.765-.609-1.218-1.866-1.218zM710.906 417.869h1.477l3.99 9.133h-1.684l-.92-2.189h-4.288l-.933 2.189h-1.632l3.99-9.133zm2.28 5.531l-1.567-3.627-1.555 3.627h3.122zM717.968 425.68l.958-1.14c.868.751 1.749 1.179 2.863 1.179.985 0 1.606-.467 1.606-1.141v-.025c0-.647-.363-.998-2.047-1.387-1.93-.466-3.019-1.036-3.019-2.707v-.026c0-1.555 1.296-2.63 3.096-2.63 1.322 0 2.371.402 3.291 1.141l-.855 1.204c-.816-.608-1.632-.933-2.461-.933-.933 0-1.477.479-1.477 1.075v.026c0 .699.415 1.011 2.164 1.425 1.917.467 2.902 1.153 2.902 2.656v.025c0 1.697-1.334 2.708-3.239 2.708a5.578 5.578 0 0 1-3.782-1.45zM727.672 417.933h6.723v1.425h-5.13v2.358h4.547v1.425h-4.547v2.436h5.195v1.425h-6.788v-9.069z"/><linearGradient id="SVGID_7_" gradientUnits="userSpaceOnUse" x1="656.521" y1="405.944" x2="806.401" y2="329.814" gradientTransform="matrix(.9863 0 0 1.1211 .058 9.375)"><stop offset="0" stop-color="#17c9c0"/><stop offset=".168" stop-color="#00a9d7"/><stop offset=".564" stop-color="#1cd0bb"/><stop offset="1" stop-color="#0fbec8"/></linearGradient><path d="M804.437 444.271H638.56v-44.955h165.878v44.955zm-162.877-3h159.878v-38.955H641.56v38.955z" fill="url(#SVGID_7_)"/><linearGradient id="SVGID_8_" gradientUnits="userSpaceOnUse" x1="656.521" y1="320.15" x2="806.401" y2="244.019" gradientTransform="matrix(.9863 0 0 1.1211 .058 9.375)"><stop offset="0" stop-color="#17c9c0"/><stop offset=".168" stop-color="#00a9d7"/><stop offset=".564" stop-color="#1cd0bb"/><stop offset="1" stop-color="#0fbec8"/></linearGradient><path d="M804.437 348.089H638.56v-44.955h165.878v44.955zm-162.877-3h159.878v-38.955H641.56v38.955z" fill="url(#SVGID_8_)"/><g><path class="st1" d="M658.291 321.752h1.697l2.759 4.288 2.759-4.288h1.697v9.068h-1.594v-6.503l-2.863 4.274h-.052l-2.837-4.249v6.478h-1.567v-9.068zM670.431 321.752h1.594v9.068h-1.594v-9.068zM674.849 326.312v-.026c0-2.578 1.93-4.689 4.677-4.689 1.671 0 2.682.583 3.55 1.412l-1.023 1.179c-.725-.674-1.503-1.127-2.539-1.127-1.723 0-2.992 1.425-2.992 3.199v.026c0 1.774 1.257 3.213 2.992 3.213 1.114 0 1.827-.44 2.604-1.166l1.023 1.036c-.946.984-1.982 1.606-3.679 1.606-2.644 0-4.613-2.059-4.613-4.663zM685.616 321.752h4.042c1.14 0 2.034.337 2.617.907.479.492.751 1.166.751 1.956v.025c0 1.49-.894 2.384-2.15 2.747l2.448 3.433h-1.891l-2.228-3.161h-1.995v3.161h-1.593v-9.068zm3.925 4.495c1.14 0 1.865-.596 1.865-1.516v-.025c0-.972-.7-1.503-1.878-1.503h-2.319v3.044h2.332zM695.385 326.312v-.026c0-2.552 1.969-4.689 4.754-4.689 2.785 0 4.728 2.111 4.728 4.663v.026c0 2.552-1.969 4.689-4.754 4.689-2.785 0-4.728-2.111-4.728-4.663zm7.811 0v-.026c0-1.762-1.282-3.226-3.083-3.226-1.801 0-3.057 1.438-3.057 3.199v.026c0 1.762 1.282 3.213 3.083 3.213 1.801.001 3.057-1.424 3.057-3.186zM706.929 329.499l.958-1.14c.868.751 1.749 1.179 2.863 1.179.985 0 1.606-.467 1.606-1.141v-.025c0-.647-.363-.998-2.047-1.387-1.93-.466-3.019-1.036-3.019-2.707v-.026c0-1.555 1.296-2.63 3.096-2.63 1.322 0 2.371.402 3.291 1.141l-.855 1.204c-.816-.608-1.632-.933-2.461-.933-.933 0-1.477.479-1.477 1.075v.026c0 .699.415 1.011 2.164 1.425 1.917.467 2.902 1.153 2.902 2.656v.025c0 1.697-1.334 2.708-3.239 2.708a5.581 5.581 0 0 1-3.782-1.45zM716.633 321.752h6.723v1.425h-5.13v2.358h4.547v1.425h-4.547v2.436h5.195v1.425h-6.788v-9.069zM726.117 321.752h4.042c1.14 0 2.034.337 2.617.907.479.492.751 1.166.751 1.956v.025c0 1.49-.894 2.384-2.15 2.747l2.448 3.433h-1.891l-2.228-3.161h-1.995v3.161h-1.593v-9.068zm3.925 4.495c1.14 0 1.865-.596 1.865-1.516v-.025c0-.972-.7-1.503-1.878-1.503h-2.319v3.044h2.332zM735.252 321.752h1.762l2.734 6.97 2.72-6.97h1.723l-3.757 9.133h-1.412l-3.77-9.133zM746.64 321.752h1.594v9.068h-1.594v-9.068zM751.058 326.312v-.026c0-2.578 1.93-4.689 4.677-4.689 1.671 0 2.682.583 3.55 1.412l-1.023 1.179c-.725-.674-1.503-1.127-2.539-1.127-1.723 0-2.992 1.425-2.992 3.199v.026c0 1.774 1.257 3.213 2.992 3.213 1.114 0 1.827-.44 2.604-1.166l1.023 1.036c-.946.984-1.982 1.606-3.679 1.606-2.644 0-4.613-2.059-4.613-4.663zM761.825 321.752h6.723v1.425h-5.13v2.358h4.547v1.425h-4.547v2.436h5.195v1.425h-6.788v-9.069zM775.999 321.752h6.723v1.425h-5.13v2.358h4.547v1.425h-4.547v2.436h5.195v1.425h-6.788v-9.069z"/></g><g><path class="st1" d="M702.201 348.082h4.102v43.884h-4.102z"/><path class="st1" d="M710.387 390.17l-6.137 10.627-6.135-10.627z"/><g><path class="st1" d="M736.695 355.421h4.102v43.888h-4.102z"/><path class="st1" d="M744.883 357.216l-6.137-10.627-6.136 10.627z"/></g></g></g><g><path class="st1" d="M433.436 413.156c-10.483 0-21.096-2.245-21.096-6.537 0-4.291 10.613-6.536 21.096-6.536s21.096 2.245 21.096 6.536c0 4.292-10.613 6.537-21.096 6.537zm0-11.073c-11.657 0-19.096 2.687-19.096 4.536s7.439 4.537 19.096 4.537 19.096-2.688 19.096-4.537-7.439-4.536-19.096-4.536zM433.436 423.272c-10.483 0-21.096-2.245-21.096-6.537h2c0 1.85 7.439 4.537 19.096 4.537s19.096-2.688 19.096-4.537h2c0 4.292-10.613 6.537-21.096 6.537zM433.436 433.388c-10.483 0-21.096-2.245-21.096-6.536h2c0 1.85 7.439 4.536 19.096 4.536s19.096-2.687 19.096-4.536h2c0 4.291-10.613 6.536-21.096 6.536z"/><path class="st10" d="M453.532 436.968c0 3.058-8.997 5.537-20.096 5.537s-20.096-2.479-20.096-5.537"/><path class="st1" d="M433.436 443.504c-10.483 0-21.096-2.245-21.096-6.536h2c0 1.85 7.439 4.536 19.096 4.536s19.096-2.687 19.096-4.536h2c0 4.291-10.613 6.536-21.096 6.536z"/><path class="st1" d="M412.356 406.721h2v30.794h-2z"/><g><path class="st10" d="M453.498 406.721v30.794"/><path class="st1" d="M452.498 406.721h2v30.794h-2z"/></g></g><g><path class="st10" d="M237.717 409.022c-.443.319-.716.922-.716 1.575v22.372c0 .726.396 1.383 1.007 1.669l20.85 9.759 20.85-9.759c.611-.287 1.007-.943 1.007-1.669v-22.372c0-.599-.278-1.15-.663-1.476l-20.415-9.787a1.464 1.464 0 0 0-1.26-.006l-20.66 9.694"/><path class="st1" d="M258.858 445.398a.982.982 0 0 1-.424-.095l-20.85-9.76c-.962-.45-1.583-1.46-1.583-2.574v-22.372c0-.983.423-1.876 1.132-2.387.05-.036.104-.067.16-.094l20.661-9.694a2.467 2.467 0 0 1 2.115.01l20.416 9.787a.966.966 0 0 1 .214.138 2.96 2.96 0 0 1 1.017 2.24v22.372c0 1.114-.622 2.124-1.583 2.574l-20.85 9.76a.99.99 0 0 1-.425.095zm-20.606-35.522c-.129.128-.252.389-.252.722v22.372c0 .336.173.643.431.764l20.427 9.561 20.427-9.561c.258-.121.431-.428.431-.764v-22.372c0-.264-.111-.498-.239-.644l-20.271-9.718a.471.471 0 0 0-.405-.002l-20.549 9.642z"/></g><g><path class="st11" d="M244.594 406.183l20.862 10.183c.17.144.292.386.292.65v9.104l7.45-3.529v-9.104a.866.866 0 0 0-.292-.65l-20.862-10.183"/><path class="st1" d="M265.749 427.121a.999.999 0 0 1-1-1v-8.986l-20.593-10.053a1 1 0 0 1 .877-1.797l20.862 10.184c.074.036.144.082.208.136.404.342.646.87.646 1.412v7.524l5.45-2.582v-8.354l-20.593-10.053a1 1 0 0 1 .877-1.797l20.862 10.184c.074.036.144.082.208.136.404.342.646.87.646 1.412v9.104a.998.998 0 0 1-.572.903l-7.45 3.529a.992.992 0 0 1-.428.098z"/><path class="st1" d="M258.858 444.682a1 1 0 0 1-1-1v-22.371c0-.264-.111-.498-.239-.644l-20.272-9.718a1 1 0 1 1 .865-1.803l20.415 9.786a.966.966 0 0 1 .214.138 2.96 2.96 0 0 1 1.017 2.24v22.371a1 1 0 0 1-1 1.001z"/><path class="st1" d="M258.87 421.307a1 1 0 0 1-.433-1.901l20.415-9.787a1 1 0 0 1 .865 1.803l-20.415 9.787a.997.997 0 0 1-.432.098z"/></g><g><path class="st12" d="M590.073 441.754l-10.198 4.249v-10.198l10.198-4.249z"/><path class="st10" d="M580 446.898l10.601-4.559a.85.85 0 0 0 .514-.78v-10.451a.849.849 0 0 0-1.184-.78l-10.601 4.559a.848.848 0 0 0-.513.78v10.451a.847.847 0 0 0 1.183.78z"/><path class="st1" d="M590.72 432.166h.005-.005m-1.606.691v7.944l-8.299 3.569v-7.944l8.299-3.569m1.152-2.598a.844.844 0 0 0-.336.07l-10.601 4.559a.848.848 0 0 0-.514.78v10.45a.85.85 0 0 0 1.184.78l10.601-4.559a.848.848 0 0 0 .513-.78v-10.451a.848.848 0 0 0-.847-.849z"/><path class="st11" d="M579.359 446.898l-10.601-4.559a.85.85 0 0 1-.514-.78v-10.451a.849.849 0 0 1 1.184-.78l10.601 4.559a.848.848 0 0 1 .513.78v10.451a.848.848 0 0 1-1.183.78z"/><path class="st1" d="M570.245 432.857l8.299 3.569v7.944l-8.299-3.569v-7.944m-1.152-2.598a.85.85 0 0 0-.848.85v10.451a.85.85 0 0 0 .514.78l10.601 4.559a.85.85 0 0 0 1.185-.78v-10.45a.85.85 0 0 0-.514-.78l-10.601-4.559a.84.84 0 0 0-.337-.071z"/><path class="st1" d="M590.255 431.868a.986.986 0 0 1-.401-.084l-10.107-4.425-10.256 4.377a.999.999 0 1 1-.785-1.839l10.339-4.412c.453-.194.972-.19 1.424.007l10.189 4.461a1 1 0 0 1-.403 1.915z"/><path class="st11" d="M625.811 441.754l-10.198 4.249v-10.198l10.198-4.249z"/><path class="st1" d="M626.458 432.166h.005-.005m-1.605.691v7.945l-8.299 3.569v-7.944l8.299-3.57m1.151-2.598a.844.844 0 0 0-.336.07l-10.601 4.559a.847.847 0 0 0-.513.78v10.45a.85.85 0 0 0 1.184.78l10.601-4.559a.848.848 0 0 0 .513-.78v-10.451a.849.849 0 0 0-.848-.849z"/><path class="st10" d="M615.098 446.898l-10.601-4.559a.848.848 0 0 1-.513-.78v-10.451a.849.849 0 0 1 1.184-.78l10.601 4.559a.85.85 0 0 1 .514.78v10.451a.85.85 0 0 1-1.185.78z"/><path class="st1" d="M605.983 432.857l8.299 3.569v7.944l-8.299-3.569v-7.944m-1.151-2.598a.85.85 0 0 0-.848.85v10.451a.85.85 0 0 0 .513.78l10.601 4.559a.85.85 0 0 0 1.184-.78v-10.45a.85.85 0 0 0-.513-.78l-10.601-4.559a.832.832 0 0 0-.336-.071z"/><path class="st1" d="M604.84 431.816a1 1 0 0 1-.393-1.919l10.339-4.412c.453-.194.971-.19 1.424.007l9.711 4.252a1 1 0 0 1-.802 1.832l-9.629-4.216-10.256 4.377c-.13.054-.263.079-.394.079z"/><g><path class="st11" d="M597.522 395.268l-9.334 4.241 9.667 4.816 8.667-4.528z"/><path class="st12" d="M607.942 410.683l-10.198 4.249v-10.198l10.198-4.249z"/><path class="st1" d="M608.59 401.095h.005-.005m-1.607.691v7.944l-8.299 3.569v-7.945l8.299-3.568m1.152-2.598a.844.844 0 0 0-.336.07l-10.601 4.559a.848.848 0 0 0-.513.78v10.451a.85.85 0 0 0 1.184.78l10.601-4.559a.848.848 0 0 0 .513-.78v-10.451a.85.85 0 0 0-.848-.85z"/><path class="st1" d="M588.114 401.785l8.299 3.569v7.944l-8.299-3.569v-7.944m-1.152-2.597a.85.85 0 0 0-.848.85v10.451a.85.85 0 0 0 .513.78l10.601 4.559a.85.85 0 0 0 1.184-.78v-10.451a.85.85 0 0 0-.513-.78l-10.601-4.559a.844.844 0 0 0-.336-.07z"/><path class="st1" d="M608.124 400.796a.986.986 0 0 1-.401-.084l-10.107-4.425-10.256 4.377a.999.999 0 1 1-.785-1.839l10.339-4.412c.453-.194.972-.19 1.424.007l10.188 4.461a1 1 0 0 1-.402 1.915z"/></g><path class="st1" d="M615.179 426.715a1 1 0 0 1-1-1v-11.938l-6.468-2.922a1 1 0 0 1 .823-1.822l7.056 3.188a1 1 0 0 1 .588.911v12.584a.998.998 0 0 1-.999.999zM579.677 426.715a1 1 0 0 1-1-1v-12.584a1 1 0 0 1 .594-.914l6.356-2.826a1 1 0 1 1 .812 1.828l-5.762 2.562v11.935a1 1 0 0 1-1 .999zM597.549 439.689c-.126 0-.253-.024-.373-.072l-7.296-2.93a1 1 0 1 1 .746-1.856l6.906 2.772 6.906-3.033a1 1 0 0 1 .805 1.832l-7.291 3.202a.995.995 0 0 1-.403.085z"/></g><path class="st10" d="M766.976 397.105h22.155v10.866h-22.155zM784.097 428.704h22.158v17.133h-22.158zM749.854 435.52h22.155v10.866h-22.155z"/><g><ellipse class="st11" cx="760.928" cy="426.868" rx="11.078" ry="3.052"/><path class="st1" d="M760.928 430.92c-4.486 0-12.077-.854-12.077-4.052s7.592-4.052 12.077-4.052 12.078.854 12.078 4.052-7.592 4.052-12.078 4.052zm0-6.104c-6.124 0-9.819 1.357-10.082 2.086.263.66 3.958 2.018 10.082 2.018 6.031 0 9.705-1.316 10.068-2.052-.363-.736-4.038-2.052-10.068-2.052zM760.928 436.496c-4.486 0-12.077-.854-12.077-4.052h2c.259.694 3.953 2.052 10.077 2.052 6.125 0 9.819-1.357 10.082-2.086l1.995.034c.001 3.198-7.591 4.052-12.077 4.052zM760.928 442.073c-4.486 0-12.077-.854-12.077-4.053h2c.21.561 3.524 2.053 10.077 2.053s9.868-1.492 10.082-2.087l1.995.034c.001 3.199-7.591 4.053-12.077 4.053zM760.928 447.649c-4.486 0-12.077-.854-12.077-4.052h2c.259.694 3.953 2.052 10.077 2.052 6.125 0 9.819-1.357 10.082-2.086l1.995.034c.001 3.199-7.591 4.052-12.077 4.052z"/><path class="st1" d="M748.86 426.924h2v16.974h-2zM770.987 426.924h2v16.974h-2z"/><ellipse class="st11" cx="795.178" cy="426.868" rx="11.078" ry="3.052"/><path class="st1" d="M795.178 430.92c-4.486 0-12.077-.854-12.077-4.052s7.592-4.052 12.077-4.052 12.078.854 12.078 4.052-7.592 4.052-12.078 4.052zm0-6.104c-6.124 0-9.819 1.357-10.082 2.086.263.66 3.958 2.018 10.082 2.018 6.031 0 9.705-1.316 10.068-2.052-.363-.736-4.038-2.052-10.068-2.052zM795.178 436.496c-4.486 0-12.077-.854-12.077-4.052h2c.259.694 3.953 2.052 10.077 2.052 6.125 0 9.819-1.357 10.082-2.086l1.995.034c.001 3.198-7.591 4.052-12.077 4.052zM795.178 442.073c-4.486 0-12.077-.854-12.077-4.053h2c.21.561 3.524 2.053 10.077 2.053s9.868-1.492 10.082-2.087l1.995.034c.001 3.199-7.591 4.053-12.077 4.053zM795.178 447.649c-4.486 0-12.077-.854-12.077-4.052h2c.259.694 3.953 2.052 10.077 2.052 6.125 0 9.819-1.357 10.082-2.086l1.995.034c.001 3.199-7.591 4.052-12.077 4.052z"/><path class="st1" d="M783.11 426.924h2v16.974h-2zM805.237 426.924h2v16.974h-2z"/><ellipse class="st11" cx="778.053" cy="397.618" rx="11.078" ry="3.052"/><path class="st1" d="M778.053 401.67c-4.486 0-12.077-.854-12.077-4.052s7.592-4.052 12.077-4.052 12.078.854 12.078 4.052-7.592 4.052-12.078 4.052zm0-6.104c-6.124 0-9.819 1.357-10.082 2.086.263.66 3.958 2.018 10.082 2.018 6.031 0 9.705-1.316 10.068-2.052-.363-.736-4.038-2.052-10.068-2.052zM778.053 407.246c-4.486 0-12.077-.854-12.077-4.052h2c.259.694 3.953 2.052 10.077 2.052 6.125 0 9.819-1.357 10.082-2.086l1.995.034c.001 3.198-7.591 4.052-12.077 4.052zM778.053 412.823c-4.486 0-12.077-.854-12.077-4.053h2c.21.561 3.524 2.053 10.077 2.053s9.868-1.492 10.082-2.087l1.995.034c.001 3.199-7.591 4.053-12.077 4.053zM778.053 418.399c-4.486 0-12.077-.854-12.077-4.052h2c.259.694 3.953 2.052 10.077 2.052 6.125 0 9.819-1.357 10.082-2.086l1.995.034c.001 3.199-7.591 4.052-12.077 4.052z"/><path class="st1" d="M765.985 397.674h2v16.974h-2zM788.112 397.674h2v16.974h-2zM772.006 432.319h12.095v2h-12.095z"/><path transform="rotate(-45.001 765.966 419.916)" class="st1" d="M760.775 418.905h10.386v2h-10.386z"/><path transform="rotate(-45.001 790.258 419.916)" class="st1" d="M789.259 414.712h2v10.386h-2z"/></g><g><path class="st1" d="M723.626 172.726h1.71l4.62 9.133h-1.95l-1.065-2.189h-4.965l-1.08 2.189h-1.89l4.62-9.133zm2.64 5.531l-1.815-3.627-1.8 3.627h3.615zM732.69 172.791h4.14c2.46 0 3.99 1.205 3.99 3.031v.026c0 2.033-1.89 3.096-4.2 3.096h-2.085v2.915h-1.845v-9.068zm3.99 4.715c1.395 0 2.265-.674 2.265-1.619v-.026c0-1.062-.885-1.619-2.265-1.619h-2.145v3.265h2.145zM743.749 172.791h1.845v9.068h-1.845v-9.068zM691.704 192.899v-.026c0-2.539 2.25-4.689 5.415-4.689 1.83 0 2.955.44 4.035 1.23l-1.17 1.205c-.81-.596-1.605-.972-2.94-.972-1.935 0-3.405 1.464-3.405 3.199v.026c0 1.865 1.425 3.238 3.57 3.238.99 0 1.89-.271 2.535-.687v-1.696h-2.685v-1.387h4.47v3.809c-1.035.765-2.52 1.412-4.38 1.412-3.285.001-5.445-2.019-5.445-4.662zM708.583 188.274h1.71l4.62 9.133h-1.95l-1.065-2.189h-4.965l-1.08 2.189h-1.89l4.62-9.133zm2.64 5.531l-1.815-3.627-1.8 3.627h3.615zM718.877 189.815h-3.33v-1.477h8.52v1.477h-3.33v7.592h-1.86v-7.592zM726.95 188.338h7.785v1.425h-5.94v2.358h5.265v1.425h-5.265v2.436h6.015v1.425h-7.86v-9.069zM737.125 188.338h1.995l2.505 6.724 2.58-6.749h1.56l2.58 6.749 2.505-6.724h1.935l-3.645 9.133h-1.605l-2.58-6.516-2.58 6.516h-1.59l-3.66-9.133zM757.98 188.274h1.71l4.62 9.133h-1.95l-1.065-2.189h-4.965l-1.08 2.189h-1.89l4.62-9.133zm2.64 5.531l-1.815-3.627-1.8 3.627h3.615zM768.484 193.832l-4.17-5.493h2.19l2.925 4.003 2.97-4.003h2.115l-4.17 5.454v3.614h-1.86v-3.575z"/><g><path class="st1" d="M764.184 103.689v52.802h-61.832v-52.802h61.832m.153-2.153H702.2a2 2 0 0 0-2 2v53.106a2 2 0 0 0 2 2h62.136a2 2 0 0 0 2-2v-53.106a2 2 0 0 0-1.999-2z"/><path class="st1" d="M764.979 112.097h-63.421a1.076 1.076 0 1 1 0-2.152h63.421a1.076 1.076 0 1 1 0 2.152zM708.38 107.818h-1.938a1.076 1.076 0 1 1 0-2.152h1.938a1.076 1.076 0 1 1 0 2.152zM714.628 107.818h-1.938a1.076 1.076 0 1 1 0-2.152h1.938a1.076 1.076 0 1 1 0 2.152zM720.877 107.818h-1.938a1.076 1.076 0 1 1 0-2.152h1.938a1.076 1.076 0 1 1 0 2.152z"/><path class="st11" d="M745.289 124.44a9.295 9.295 0 0 0-.904-2.925l-2.897.041 1.489-2.145a11.516 11.516 0 0 0-2.479-2.141l-2.484 1.286.048-2.501a13.558 13.558 0 0 0-3.388-.781l-1.405 2.184-1.405-2.184a13.558 13.558 0 0 0-3.388.781l.048 2.501-2.484-1.286a11.488 11.488 0 0 0-2.479 2.141l1.49 2.145-2.897-.041a9.251 9.251 0 0 0-.904 2.925l2.53 1.213-2.53 1.213a9.303 9.303 0 0 0 .904 2.925l2.897-.041-1.49 2.145a11.516 11.516 0 0 0 2.479 2.141l2.484-1.286-.048 2.501c1.06.395 2.197.662 3.388.781l1.405-2.184 1.405 2.184a13.558 13.558 0 0 0 3.388-.781l-.048-2.501 2.484 1.286a11.488 11.488 0 0 0 2.479-2.141l-1.489-2.145 2.897.041a9.251 9.251 0 0 0 .904-2.925l-2.53-1.213 2.53-1.213zm-12.02 5.463c-2.719 0-4.922-1.903-4.922-4.25s2.204-4.25 4.922-4.25c2.719 0 4.922 1.903 4.922 4.25s-2.204 4.25-4.922 4.25z"/><path class="st1" d="M735.474 117.015c.321.058.639.128.951.211l-.025 1.299a1.616 1.616 0 0 0 2.356 1.464l1.613-.835c.179.139.353.283.52.433l-.728 1.047a1.615 1.615 0 0 0 1.326 2.535h.023l1.815-.026c.045.128.087.257.125.387l-1.389.666a1.614 1.614 0 0 0 0 2.912l1.389.666c-.038.13-.08.259-.125.387l-1.815-.026h-.023a1.614 1.614 0 0 0-1.326 2.535l.728 1.047a10.46 10.46 0 0 1-.52.433l-1.613-.835a1.61 1.61 0 0 0-1.594.062 1.616 1.616 0 0 0-.762 1.402l.025 1.3c-.312.083-.63.154-.951.211l-.847-1.317a1.615 1.615 0 0 0-2.716 0l-.847 1.317a12.006 12.006 0 0 1-.951-.211l.025-1.3a1.616 1.616 0 0 0-2.356-1.464l-1.613.835a9.464 9.464 0 0 1-.52-.433l.728-1.047a1.615 1.615 0 0 0-1.326-2.535h-.023l-1.815.026a7.579 7.579 0 0 1-.125-.387l1.389-.666a1.614 1.614 0 0 0 0-2.912l-1.389-.666c.038-.13.08-.259.125-.387l1.815.026h.023a1.614 1.614 0 0 0 1.326-2.535l-.728-1.047c.167-.149.341-.293.52-.433l1.613.835a1.61 1.61 0 0 0 1.594-.062c.483-.301.773-.833.762-1.402l-.025-1.299c.312-.083.63-.154.951-.211l.848 1.317a1.613 1.613 0 0 0 2.714 0l.848-1.317m-2.205 14.502c3.604 0 6.537-2.631 6.537-5.864 0-3.234-2.932-5.865-6.537-5.865s-6.537 2.631-6.537 5.865c0 3.234 2.932 5.864 6.537 5.864m1.405-16.243l-1.405 2.184-1.405-2.184c-1.19.119-2.328.386-3.388.781l.048 2.501-2.484-1.286a11.488 11.488 0 0 0-2.479 2.141l1.49 2.145-2.897-.042a9.283 9.283 0 0 0-.904 2.926l2.53 1.213-2.53 1.213a9.303 9.303 0 0 0 .904 2.925l2.897-.041-1.49 2.145a11.516 11.516 0 0 0 2.479 2.141l2.484-1.286-.048 2.501c1.06.395 2.198.662 3.388.781l1.405-2.184 1.405 2.184a13.568 13.568 0 0 0 3.388-.781l-.048-2.501 2.484 1.286a11.488 11.488 0 0 0 2.479-2.141l-1.49-2.145 2.897.041a9.279 9.279 0 0 0 .905-2.925l-2.53-1.213 2.53-1.213a9.292 9.292 0 0 0-.905-2.926l-2.897.042 1.49-2.145a11.516 11.516 0 0 0-2.479-2.141l-2.484 1.286.048-2.501a13.568 13.568 0 0 0-3.388-.781zm-1.405 14.629c-2.719 0-4.922-1.903-4.922-4.25s2.204-4.25 4.922-4.25 4.922 1.903 4.922 4.25-2.204 4.25-4.922 4.25z"/><path class="st1" d="M733.269 124.82c.719 0 1.22.439 1.22.833s-.501.833-1.22.833-1.22-.439-1.22-.833.501-.833 1.22-.833m0-1.615c-1.565 0-2.834 1.096-2.834 2.448s1.269 2.448 2.834 2.448 2.834-1.096 2.834-2.448-1.269-2.448-2.834-2.448z"/><g><path class="st11" d="M733.155 142.415a9.295 9.295 0 0 0-.904-2.925l-2.897.041 1.49-2.145a11.488 11.488 0 0 0-2.479-2.141l-2.484 1.286.048-2.501a13.568 13.568 0 0 0-3.388-.781l-1.405 2.184-1.405-2.184a13.558 13.558 0 0 0-3.388.781l.048 2.501-2.484-1.286a11.488 11.488 0 0 0-2.479 2.141l1.489 2.145-2.897-.041a9.251 9.251 0 0 0-.904 2.925l2.53 1.213-2.53 1.213a9.303 9.303 0 0 0 .904 2.925l2.897-.041-1.489 2.145a11.516 11.516 0 0 0 2.479 2.141l2.484-1.286-.048 2.501c1.06.395 2.197.662 3.388.781l1.405-2.184 1.405 2.184a13.568 13.568 0 0 0 3.388-.781l-.048-2.501 2.484 1.286a11.488 11.488 0 0 0 2.479-2.141l-1.49-2.145 2.897.041a9.251 9.251 0 0 0 .904-2.925l-2.53-1.213 2.53-1.213zm-12.02 5.463c-2.719 0-4.922-1.903-4.922-4.25s2.204-4.25 4.922-4.25c2.719 0 4.922 1.903 4.922 4.25s-2.204 4.25-4.922 4.25z"/><path class="st1" d="M718.93 134.99l.847 1.317a1.615 1.615 0 0 0 2.716 0l.847-1.317c.321.058.639.128.951.211l-.025 1.299a1.616 1.616 0 0 0 2.356 1.464l1.613-.835c.179.139.353.284.52.433l-.727 1.048a1.615 1.615 0 0 0 1.326 2.535h.023l1.815-.026c.045.128.087.257.125.387l-1.389.666a1.614 1.614 0 0 0 0 2.912l1.389.666c-.038.13-.08.259-.125.387l-1.815-.026h-.023a1.614 1.614 0 0 0-1.326 2.535l.727 1.048a10.46 10.46 0 0 1-.52.433l-1.613-.835a1.61 1.61 0 0 0-1.594.062 1.616 1.616 0 0 0-.762 1.402l.025 1.299c-.312.083-.63.154-.951.212l-.847-1.317a1.615 1.615 0 0 0-2.716 0l-.847 1.317a11.582 11.582 0 0 1-.951-.212l.025-1.299a1.616 1.616 0 0 0-2.356-1.464l-1.613.835a9.464 9.464 0 0 1-.52-.433l.727-1.048a1.615 1.615 0 0 0-1.326-2.535h-.023l-1.815.026a7.579 7.579 0 0 1-.125-.387l1.389-.666a1.615 1.615 0 0 0 0-2.912l-1.389-.666c.038-.13.08-.259.125-.387l1.815.026h.023a1.614 1.614 0 0 0 1.326-2.535l-.727-1.048c.167-.149.341-.293.52-.433l1.613.835a1.61 1.61 0 0 0 1.594-.062c.483-.301.773-.833.762-1.402l-.025-1.299c.312-.083.629-.154.951-.211m2.205 14.503c3.604 0 6.537-2.631 6.537-5.865 0-3.234-2.932-5.865-6.537-5.865-3.604 0-6.537 2.631-6.537 5.865 0 3.234 2.932 5.865 6.537 5.865m1.405-16.244l-1.405 2.184-1.405-2.184a13.558 13.558 0 0 0-3.388.781l.048 2.501-2.484-1.286a11.488 11.488 0 0 0-2.479 2.141l1.489 2.145-2.897-.041a9.251 9.251 0 0 0-.904 2.925l2.53 1.213-2.53 1.213a9.317 9.317 0 0 0 .904 2.926l2.897-.042-1.489 2.145a11.516 11.516 0 0 0 2.479 2.141l2.484-1.286-.048 2.501c1.06.395 2.197.662 3.388.781l1.405-2.184 1.405 2.184a13.558 13.558 0 0 0 3.388-.781l-.048-2.501 2.484 1.286a11.488 11.488 0 0 0 2.479-2.141l-1.489-2.145 2.897.042a9.25 9.25 0 0 0 .904-2.926l-2.53-1.213 2.53-1.213a9.303 9.303 0 0 0-.904-2.925l-2.897.041 1.489-2.145a11.516 11.516 0 0 0-2.479-2.141l-2.484 1.286.048-2.501a13.568 13.568 0 0 0-3.388-.781zm-1.405 14.63c-2.719 0-4.923-1.903-4.923-4.25s2.204-4.25 4.923-4.25 4.922 1.903 4.922 4.25-2.204 4.25-4.922 4.25z"/><path class="st1" d="M721.135 142.795c.719 0 1.22.439 1.22.833s-.501.833-1.22.833-1.22-.439-1.22-.833.501-.833 1.22-.833m0-1.614c-1.565 0-2.834 1.096-2.834 2.448 0 1.352 1.269 2.448 2.834 2.448 1.566 0 2.835-1.096 2.835-2.448-.001-1.353-1.27-2.448-2.835-2.448z"/></g><g><path class="st11" d="M757.423 142.415a9.295 9.295 0 0 0-.904-2.925l-2.897.041 1.489-2.145a11.488 11.488 0 0 0-2.479-2.141l-2.484 1.286.048-2.501a13.558 13.558 0 0 0-3.388-.781l-1.405 2.184-1.405-2.184c-1.19.119-2.328.386-3.388.781l.048 2.501-2.484-1.286a11.488 11.488 0 0 0-2.479 2.141l1.489 2.145-2.897-.041a9.251 9.251 0 0 0-.904 2.925l2.53 1.213-2.53 1.213a9.303 9.303 0 0 0 .904 2.925l2.897-.041-1.489 2.145a11.516 11.516 0 0 0 2.479 2.141l2.484-1.286-.048 2.501c1.06.395 2.197.662 3.388.781l1.405-2.184 1.405 2.184a13.558 13.558 0 0 0 3.388-.781l-.048-2.501 2.484 1.286a11.488 11.488 0 0 0 2.479-2.141l-1.489-2.145 2.897.041a9.277 9.277 0 0 0 .904-2.925l-2.53-1.213 2.53-1.213zm-12.021 5.463c-2.719 0-4.922-1.903-4.922-4.25s2.204-4.25 4.922-4.25 4.922 1.903 4.922 4.25c.001 2.347-2.203 4.25-4.922 4.25z"/><path class="st1" d="M743.198 134.99l.847 1.317a1.615 1.615 0 0 0 2.716 0l.847-1.317c.321.058.639.128.951.211l-.025 1.299a1.616 1.616 0 0 0 2.356 1.464l1.613-.835c.179.139.353.283.52.433l-.728 1.047a1.615 1.615 0 0 0 1.326 2.535h.023l1.815-.026c.045.128.087.257.125.387l-1.389.666a1.614 1.614 0 0 0 0 2.912l1.389.666c-.038.13-.08.259-.125.387l-1.815-.026h-.023a1.614 1.614 0 0 0-1.326 2.535l.728 1.047a10.46 10.46 0 0 1-.52.433l-1.613-.835a1.61 1.61 0 0 0-1.594.062 1.616 1.616 0 0 0-.762 1.402l.025 1.299c-.312.083-.63.154-.951.212l-.847-1.317a1.615 1.615 0 0 0-2.716 0l-.847 1.317a11.582 11.582 0 0 1-.951-.212l.025-1.299a1.614 1.614 0 0 0-2.356-1.464l-1.613.835a9.464 9.464 0 0 1-.52-.433l.727-1.048a1.615 1.615 0 0 0-1.326-2.535h-.023l-1.815.026a7.579 7.579 0 0 1-.125-.387l1.389-.666a1.615 1.615 0 0 0 0-2.912l-1.389-.666c.038-.13.08-.259.125-.387l1.815.026h.023a1.614 1.614 0 0 0 1.326-2.535l-.727-1.048c.167-.149.341-.293.52-.433l1.613.835a1.61 1.61 0 0 0 1.594-.062c.483-.3.772-.833.762-1.402l-.025-1.299c.312-.081.629-.152.951-.209m2.204 14.503c3.604 0 6.537-2.631 6.537-5.865 0-3.234-2.932-5.865-6.537-5.865s-6.537 2.631-6.537 5.865c.001 3.234 2.933 5.865 6.537 5.865m1.406-16.244l-1.405 2.184-1.405-2.184a13.548 13.548 0 0 0-3.388.781l.048 2.501-2.484-1.286a11.488 11.488 0 0 0-2.479 2.141l1.489 2.145-2.897-.041a9.251 9.251 0 0 0-.904 2.925l2.53 1.213-2.53 1.213a9.317 9.317 0 0 0 .904 2.926l2.897-.042-1.489 2.145a11.516 11.516 0 0 0 2.479 2.141l2.484-1.286-.048 2.501c1.06.395 2.198.662 3.388.781l1.405-2.184 1.405 2.184a13.568 13.568 0 0 0 3.388-.781l-.048-2.501 2.484 1.286a11.488 11.488 0 0 0 2.479-2.141l-1.49-2.145 2.897.042a9.25 9.25 0 0 0 .904-2.926l-2.53-1.213 2.53-1.213a9.303 9.303 0 0 0-.904-2.925l-2.897.041 1.49-2.145a11.516 11.516 0 0 0-2.479-2.141l-2.484 1.286.048-2.501a13.568 13.568 0 0 0-3.388-.781zm-1.406 14.63c-2.719 0-4.922-1.903-4.922-4.25s2.204-4.25 4.922-4.25c2.719 0 4.922 1.903 4.922 4.25s-2.203 4.25-4.922 4.25z"/><path class="st1" d="M745.402 142.795c.719 0 1.22.439 1.22.833s-.501.833-1.22.833-1.22-.439-1.22-.833.501-.833 1.22-.833m0-1.614c-1.565 0-2.834 1.096-2.834 2.448 0 1.352 1.269 2.448 2.834 2.448s2.834-1.096 2.834-2.448c.001-1.353-1.268-2.448-2.834-2.448z"/></g></g><g><linearGradient id="SVGID_9_" gradientUnits="userSpaceOnUse" x1="682.244" y1="282.555" x2="871.084" y2="186.635"><stop offset="0" stop-color="#17c9c0"/><stop offset=".168" stop-color="#00a9d7"/><stop offset=".564" stop-color="#1cd0bb"/><stop offset="1" stop-color="#0fbec8"/></linearGradient><path fill="url(#SVGID_9_)" d="M816.634 218.888h-6.828v-4.654h2.173v-2.173h4.655z"/><linearGradient id="SVGID_10_" gradientUnits="userSpaceOnUse" x1="667.815" y1="249.808" x2="854.021" y2="155.226"><stop offset="0" stop-color="#17c9c0"/><stop offset=".168" stop-color="#00a9d7"/><stop offset=".564" stop-color="#1cd0bb"/><stop offset="1" stop-color="#0fbec8"/></linearGradient><path d="M805.641 218.888h-9.372v-4.654h9.372v4.654zm-13.537 0h-9.372v-4.654h9.372v4.654zm-13.538 0h-9.372v-4.654h9.372v4.654zm-13.537 0h-9.372v-4.654h9.372v4.654zm-13.537 0h-9.372v-4.654h9.372v4.654zm-13.538 0h-9.372v-4.654h9.372v4.654zm-13.537 0h-9.372v-4.654h9.372v4.654zm-13.537 0h-9.372v-4.654h9.372v4.654zm-13.538 0h-9.372v-4.654h9.372v4.654zm-13.537 0h-9.372v-4.654h9.372v4.654zm-13.537 0h-9.372v-4.654h9.372v4.654z" fill="url(#SVGID_10_)"/><linearGradient id="SVGID_11_" gradientUnits="userSpaceOnUse" x1="649.225" y1="217.553" x2="838.062" y2="121.634"><stop offset="0" stop-color="#17c9c0"/><stop offset=".168" stop-color="#00a9d7"/><stop offset=".564" stop-color="#1cd0bb"/><stop offset="1" stop-color="#0fbec8"/></linearGradient><path fill="url(#SVGID_11_)" d="M656.73 218.888h-6.827v-6.827h4.655v2.173h2.172z"/><linearGradient id="SVGID_12_" gradientUnits="userSpaceOnUse" x1="622.299" y1="164.365" x2="808.091" y2="69.993"><stop offset="0" stop-color="#17c9c0"/><stop offset=".168" stop-color="#00a9d7"/><stop offset=".564" stop-color="#1cd0bb"/><stop offset="1" stop-color="#0fbec8"/></linearGradient><path d="M654.558 207.902h-4.655v-9.356h4.655v9.356zm0-13.516h-4.655v-9.356h4.655v9.356zm0-13.515h-4.655v-9.356h4.655v9.356zm0-13.515h-4.655v-9.357h4.655v9.357zm0-13.516h-4.655v-9.357h4.655v9.357zm0-13.515h-4.655v-9.356h4.655v9.356zm0-13.516h-4.655v-9.356h4.655v9.356zm0-13.515h-4.655v-9.356h4.655v9.356zm0-13.515h-4.655v-9.357h4.655v9.357z" fill="url(#SVGID_12_)"/><linearGradient id="SVGID_13_" gradientUnits="userSpaceOnUse" x1="595.453" y1="111.69" x2="784.293" y2="15.769"><stop offset="0" stop-color="#17c9c0"/><stop offset=".168" stop-color="#00a9d7"/><stop offset=".564" stop-color="#1cd0bb"/><stop offset="1" stop-color="#0fbec8"/></linearGradient><path fill="url(#SVGID_13_)" d="M654.558 86.263h-4.655v-6.827h6.827v4.654h-2.172z"/><linearGradient id="SVGID_14_" gradientUnits="userSpaceOnUse" x1="612.516" y1="143.099" x2="798.721" y2="48.517"><stop offset="0" stop-color="#17c9c0"/><stop offset=".168" stop-color="#00a9d7"/><stop offset=".564" stop-color="#1cd0bb"/><stop offset="1" stop-color="#0fbec8"/></linearGradient><path d="M805.641 84.09h-9.372v-4.654h9.372v4.654zm-13.537 0h-9.372v-4.654h9.372v4.654zm-13.538 0h-9.372v-4.654h9.372v4.654zm-13.537 0h-9.372v-4.654h9.372v4.654zm-13.537 0h-9.372v-4.654h9.372v4.654zm-13.537 0h-9.372v-4.654h9.372v4.654zm-13.538 0h-9.372v-4.654h9.372v4.654zm-13.537 0h-9.372v-4.654h9.372v4.654zm-13.537 0h-9.372v-4.654h9.372v4.654zm-13.538 0h-9.372v-4.654h9.372v4.654zm-13.537 0h-9.372v-4.654h9.372v4.654z" fill="url(#SVGID_14_)"/><linearGradient id="SVGID_15_" gradientUnits="userSpaceOnUse" x1="628.475" y1="176.69" x2="817.312" y2="80.771"><stop offset="0" stop-color="#17c9c0"/><stop offset=".168" stop-color="#00a9d7"/><stop offset=".564" stop-color="#1cd0bb"/><stop offset="1" stop-color="#0fbec8"/></linearGradient><path fill="url(#SVGID_15_)" d="M816.634 86.263h-4.655V84.09h-2.173v-4.654h6.828z"/><linearGradient id="SVGID_16_" gradientUnits="userSpaceOnUse" x1="658.446" y1="228.331" x2="844.238" y2="133.959"><stop offset="0" stop-color="#17c9c0"/><stop offset=".168" stop-color="#00a9d7"/><stop offset=".564" stop-color="#1cd0bb"/><stop offset="1" stop-color="#0fbec8"/></linearGradient><path d="M816.634 207.903h-4.655v-9.357h4.655v9.357zm0-13.516h-4.655v-9.356h4.655v9.356zm0-13.515h-4.655v-9.356h4.655v9.356zm0-13.516h-4.655V158h4.655v9.356zm0-13.515h-4.655v-9.357h4.655v9.357zm0-13.515h-4.655v-9.357h4.655v9.357zm0-13.516h-4.655v-9.356h4.655v9.356zm0-13.515h-4.655v-9.356h4.655v9.356zm0-13.516h-4.655v-9.356h4.655v9.356z" fill="url(#SVGID_16_)"/></g></g><g><path transform="rotate(-86.813 568.504 94.793)" class="st1" d="M566.492 15.869h4.102v157.84h-4.102z"/><path class="st1" d="M645.207 105.206l10.951-5.535-10.268-6.719z"/></g><g><path class="st1" d="M391.343 109.088v-5.221h1.593v5.156c0 1.684.868 2.578 2.293 2.578 1.412 0 2.28-.843 2.28-2.514v-5.221h1.593v5.144c0 2.707-1.529 4.067-3.899 4.067-2.358.002-3.86-1.359-3.86-3.989zM401.487 111.615l.958-1.14c.868.751 1.749 1.179 2.863 1.179.984 0 1.606-.467 1.606-1.141v-.025c0-.647-.363-.998-2.047-1.387-1.93-.466-3.019-1.036-3.019-2.707v-.026c0-1.555 1.295-2.63 3.096-2.63 1.321 0 2.371.402 3.291 1.141l-.855 1.204c-.816-.608-1.632-.933-2.461-.933-.933 0-1.477.479-1.477 1.075v.026c0 .699.415 1.011 2.164 1.425 1.917.467 2.902 1.153 2.902 2.656v.025c0 1.697-1.334 2.708-3.239 2.708a5.58 5.58 0 0 1-3.782-1.45zM411.192 103.868h6.723v1.425h-5.13v2.358h4.547v1.425h-4.547v2.436h5.195v1.425h-6.788v-9.069zM420.676 103.868h4.042c1.14 0 2.034.337 2.617.907.479.492.751 1.166.751 1.956v.025c0 1.49-.894 2.384-2.15 2.747l2.448 3.433h-1.891l-2.229-3.161h-1.995v3.161h-1.593v-9.068zm3.925 4.495c1.14 0 1.866-.596 1.866-1.516v-.025c0-.972-.7-1.503-1.878-1.503h-2.319v3.044h2.331zM369.563 119.416h1.594v9.068h-1.594v-9.068zM374.383 119.416h1.477l4.858 6.271v-6.271h1.567v9.068h-1.334l-5-6.451v6.451h-1.567v-9.068zM387.649 120.892h-2.875v-1.477h7.358v1.477h-2.876v7.592h-1.606v-7.592zM394.621 119.416h6.723v1.425h-5.13v2.358h4.547v1.425h-4.547v2.436h5.195v1.425h-6.788v-9.069zM404.104 119.416h4.042c1.14 0 2.034.337 2.617.907.479.492.751 1.166.751 1.956v.025c0 1.49-.894 2.384-2.15 2.747l2.448 3.433h-1.891l-2.229-3.161h-1.995v3.161h-1.593v-9.068zm3.926 4.495c1.14 0 1.866-.596 1.866-1.516v-.025c0-.972-.7-1.503-1.878-1.503h-2.319v3.044h2.331zM414.275 119.416h6.749v1.451h-5.156v2.475h4.573v1.45h-4.573v3.692h-1.593v-9.068zM425.754 119.351h1.477l3.99 9.133h-1.684l-.92-2.189h-4.288l-.933 2.189h-1.632l3.99-9.133zm2.28 5.531l-1.567-3.627-1.555 3.627h3.122zM432.609 123.976v-.026c0-2.578 1.93-4.689 4.676-4.689 1.671 0 2.682.583 3.55 1.412l-1.023 1.179c-.726-.674-1.503-1.127-2.539-1.127-1.723 0-2.993 1.425-2.993 3.2v.025c0 1.774 1.257 3.213 2.993 3.213 1.114 0 1.827-.44 2.604-1.166l1.023 1.036c-.946.984-1.982 1.606-3.679 1.606-2.643 0-4.612-2.059-4.612-4.663zM443.375 119.416h6.723v1.425h-5.13v2.358h4.547v1.425h-4.547v2.436h5.195v1.425h-6.788v-9.069z"/></g><g><path class="st11" d="M383.525 44.071h45.929v7.622h-45.929z"/><path class="st1" d="M428.912 44.868v43.737h-44.843V44.868h44.843m.093-2h-45.031a1.906 1.906 0 0 0-1.906 1.906V88.7c0 1.053.853 1.906 1.906 1.906h45.031a1.906 1.906 0 0 0 1.906-1.906V44.774a1.906 1.906 0 0 0-1.906-1.906z"/><path class="st1" d="M383.236 51.039h46.837v2h-46.837z"/><path class="st1" d="M435.025 85.455h-4.953v-2h4.953c.5 0 .906-.406.906-.906V38.624c0-.5-.406-.906-.906-.906h-45.031c-.5 0-.906.406-.906.906v5.64h-2v-5.64a2.91 2.91 0 0 1 2.906-2.906h45.031a2.91 2.91 0 0 1 2.906 2.906v43.925a2.91 2.91 0 0 1-2.906 2.906zM388.897 48.901h-1.618a1 1 0 1 1 0-2h1.618a1 1 0 1 1 0 2z"/><path class="st1" d="M394.114 48.901h-1.618a1 1 0 1 1 0-2h1.618a1 1 0 1 1 0 2zM399.33 48.901h-1.618a1 1 0 1 1 0-2h1.618a1 1 0 1 1 0 2zM396.711 53.019h2v36.539h-2zM385.885 56.679h8.27v2h-8.27zM385.885 61.707h8.27v2h-8.27zM385.885 66.733h8.27v2h-8.27zM385.885 71.76h8.27v2h-8.27zM385.885 76.788h8.27v2h-8.27zM423.351 58.644v6.79h-19.46v-6.79h19.46m2-2h-23.46v10.79h23.46v-10.79z"/></g><g><path class="st1" d="M187.603 301.297h-4v-171.05c0-9.498-7.727-17.226-17.225-17.226v-4c11.704 0 21.225 9.521 21.225 21.226v171.05z"/><path class="st1" d="M179.619 299.547l5.984 10.363 5.983-10.363z"/></g><g><path class="st1" d="M351.821 302.709c-.842-2.978-2.219-5.588-4.333-8.214L214.711 129.544c-10.966-11.478-26.352-18.059-42.229-18.059h-7.662v-4.102h7.662c17.021 0 33.517 7.068 45.258 19.392l.113.129 132.831 165.019c2.472 3.07 4.088 6.144 5.085 9.671l-3.948 1.115z"/><path class="st1" d="M347.252 301.371l7.72 9.539 4.403-11.455z"/></g><g><path class="st1" d="M228.486 302.475l-3.538-1.867a19.962 19.962 0 0 1 15.276-10.505l445.058-53.316c9.674-1.159 16.969-9.381 16.969-19.124h4c0 11.767-8.811 21.695-20.494 23.095l-445.058 53.316a15.965 15.965 0 0 0-12.213 8.401z"/><path class="st1" d="M221.768 298.296l2.882 11.614 8.618-8.302z"/></g><g><linearGradient id="SVGID_17_" gradientUnits="userSpaceOnUse" x1="10.106" y1="118.37" x2="159.986" y2="42.239" gradientTransform="matrix(.9863 0 0 1.1211 .058 9.375)"><stop offset="0" stop-color="#17c9c0"/><stop offset=".168" stop-color="#00a9d7"/><stop offset=".564" stop-color="#1cd0bb"/><stop offset="1" stop-color="#0fbec8"/></linearGradient><path d="M166.878 121.879H1V76.924h165.878v44.955zM4 118.879h159.878V79.924H4v38.955z" fill="url(#SVGID_17_)"/><path class="st1" d="M20.731 95.541h1.697l2.759 4.288 2.759-4.288h1.697v9.068h-1.594v-6.503l-2.863 4.274h-.052l-2.837-4.249v6.478H20.73v-9.068zM32.871 95.541h1.594v9.068h-1.594v-9.068zM37.29 100.101v-.026c0-2.578 1.93-4.689 4.677-4.689 1.671 0 2.682.583 3.55 1.412l-1.023 1.179c-.725-.674-1.503-1.127-2.539-1.127-1.723 0-2.992 1.425-2.992 3.199v.026c0 1.774 1.257 3.213 2.992 3.213 1.114 0 1.827-.44 2.604-1.166l1.023 1.036c-.946.984-1.982 1.606-3.679 1.606-2.644 0-4.613-2.059-4.613-4.663zM48.056 95.541h4.042c1.14 0 2.034.337 2.617.907.479.492.751 1.166.751 1.956v.025c0 1.49-.894 2.384-2.15 2.747l2.448 3.433h-1.891l-2.228-3.161H49.65v3.161h-1.593v-9.068zm3.925 4.495c1.14 0 1.865-.596 1.865-1.516v-.025c0-.972-.7-1.503-1.878-1.503h-2.319v3.044h2.332zM57.825 100.101v-.026c0-2.552 1.969-4.689 4.754-4.689 2.785 0 4.728 2.111 4.728 4.663v.026c0 2.552-1.969 4.689-4.754 4.689-2.785 0-4.728-2.111-4.728-4.663zm7.812 0v-.026c0-1.762-1.282-3.226-3.083-3.226-1.801 0-3.057 1.438-3.057 3.199v.026c0 1.762 1.282 3.213 3.083 3.213 1.8.001 3.057-1.424 3.057-3.186zM69.369 103.288l.958-1.14c.868.751 1.749 1.179 2.863 1.179.985 0 1.606-.467 1.606-1.141v-.025c0-.647-.363-.998-2.047-1.387-1.93-.466-3.019-1.036-3.019-2.707v-.026c0-1.555 1.296-2.63 3.096-2.63 1.322 0 2.371.402 3.291 1.141l-.855 1.204c-.816-.608-1.632-.933-2.461-.933-.933 0-1.477.479-1.477 1.075v.026c0 .699.415 1.011 2.164 1.425 1.917.467 2.902 1.153 2.902 2.656v.025c0 1.697-1.334 2.708-3.239 2.708a5.585 5.585 0 0 1-3.782-1.45zM79.074 95.541h6.723v1.425h-5.13v2.358h4.547v1.425h-4.547v2.436h5.195v1.425h-6.788v-9.069zM88.558 95.541H92.6c1.14 0 2.034.337 2.617.907.479.492.751 1.166.751 1.956v.025c0 1.49-.894 2.384-2.15 2.747l2.448 3.433h-1.891l-2.228-3.161h-1.995v3.161h-1.593v-9.068zm3.925 4.495c1.14 0 1.865-.596 1.865-1.516v-.025c0-.972-.7-1.503-1.878-1.503h-2.319v3.044h2.332zM97.692 95.541h1.762l2.734 6.97 2.72-6.97h1.723l-3.757 9.133h-1.412l-3.77-9.133zM109.081 95.541h1.594v9.068h-1.594v-9.068zM113.499 100.101v-.026c0-2.578 1.93-4.689 4.677-4.689 1.671 0 2.682.583 3.55 1.412l-1.023 1.179c-.725-.674-1.503-1.127-2.539-1.127-1.723 0-2.992 1.425-2.992 3.199v.026c0 1.774 1.257 3.213 2.992 3.213 1.114 0 1.827-.44 2.604-1.166l1.023 1.036c-.946.984-1.982 1.606-3.679 1.606-2.644 0-4.613-2.059-4.613-4.663zM124.265 95.541h6.723v1.425h-5.13v2.358h4.547v1.425h-4.547v2.436h5.195v1.425h-6.788v-9.069zM141.652 95.476h1.477l3.99 9.133h-1.684l-.92-2.189h-4.288l-.933 2.189h-1.632l3.99-9.133zm2.28 5.531l-1.567-3.627-1.555 3.627h3.122z"/><g><path class="st1" d="M20.731 191.722h3.381c2.85 0 4.819 1.956 4.819 4.508v.026c0 2.552-1.969 4.534-4.819 4.534h-3.381v-9.068zm1.594 1.451v6.166h1.788c1.904 0 3.148-1.282 3.148-3.057v-.026c0-1.774-1.244-3.083-3.148-3.083h-1.788zM34.244 191.658h1.477l3.99 9.133h-1.684l-.92-2.189h-4.288l-.933 2.189h-1.632l3.99-9.133zm2.28 5.531l-1.567-3.627-1.555 3.627h3.122zM43.133 193.199h-2.876v-1.477h7.358v1.477h-2.876v7.592h-1.606v-7.592zM52.15 191.658h1.477l3.99 9.133h-1.684l-.92-2.189h-4.288l-.933 2.189H48.16l3.99-9.133zm2.28 5.531l-1.567-3.627-1.555 3.627h3.122zM59.976 191.722h4.068c1.036 0 1.853.285 2.371.804.402.401.609.894.609 1.502v.026c0 1.088-.622 1.671-1.296 2.021 1.062.363 1.801.972 1.801 2.202v.026c0 1.619-1.334 2.487-3.355 2.487h-4.197v-9.068zm5.454 2.566c0-.713-.57-1.153-1.594-1.153h-2.293v2.409h2.177c1.023 0 1.71-.401 1.71-1.23v-.026zm-1.36 2.603h-2.526v2.487h2.643c1.088 0 1.749-.428 1.749-1.243v-.026c-.001-.765-.61-1.218-1.866-1.218zM73.346 191.658h1.477l3.99 9.133h-1.684l-.92-2.189h-4.288l-.933 2.189h-1.632l3.99-9.133zm2.28 5.531l-1.567-3.627-1.555 3.627h3.122zM80.408 199.469l.958-1.14c.868.751 1.749 1.179 2.863 1.179.985 0 1.606-.467 1.606-1.141v-.025c0-.647-.363-.998-2.047-1.387-1.93-.466-3.019-1.036-3.019-2.707v-.026c0-1.555 1.296-2.63 3.096-2.63 1.322 0 2.371.402 3.291 1.141l-.855 1.204c-.816-.608-1.632-.933-2.461-.933-.933 0-1.477.479-1.477 1.075v.026c0 .699.415 1.011 2.164 1.425 1.917.467 2.902 1.153 2.902 2.656v.025c0 1.697-1.334 2.708-3.239 2.708a5.575 5.575 0 0 1-3.782-1.45zM90.113 191.722h6.723v1.425h-5.13v2.358h4.547v1.425h-4.547v2.436h5.195v1.425h-6.788v-9.069z"/></g><linearGradient id="SVGID_18_" gradientUnits="userSpaceOnUse" x1="10.106" y1="204.164" x2="159.986" y2="128.034" gradientTransform="matrix(.9863 0 0 1.1211 .058 9.375)"><stop offset="0" stop-color="#17c9c0"/><stop offset=".168" stop-color="#00a9d7"/><stop offset=".564" stop-color="#1cd0bb"/><stop offset="1" stop-color="#0fbec8"/></linearGradient><path d="M166.878 218.061H1v-44.955h165.878v44.955zM4 215.061h159.878v-38.955H4v38.955z" fill="url(#SVGID_18_)"/><g><path class="st1" d="M64.64 121.886h4.102v43.052H64.64z"/><path class="st1" d="M72.827 163.142l-6.136 10.627-6.136-10.627z"/><g><path class="st1" d="M99.135 128.962h4.102v44.126h-4.102z"/><path class="st1" d="M107.323 130.757l-6.136-10.627-6.137 10.627z"/></g></g></g><g><path class="st10" d="M123.786 212.779h9.832v-9.31c-4.221.005-12.123.009-12.136.009a7.754 7.754 0 0 1-.255-15.504 13.887 13.887 0 0 1-1.241-5.757c0-7.7 6.242-13.942 13.942-13.942 5.603 0 10.434 3.306 12.649 8.073a7.487 7.487 0 0 1 12.77 5.302c6.027 0 10.914 4.883 10.914 10.91 0 5.533-4.122 10.157-9.459 10.87-.135 0-7.299.002-10.548.006v9.342h9.741"/><path class="st1" d="M159.994 213.779h-9.741a1 1 0 0 1-1-1v-9.342a1 1 0 0 1 .999-1c3.092-.004 9.727-.006 10.481-.006 4.866-.684 8.528-4.915 8.528-9.87 0-5.465-4.447-9.91-9.914-9.91a1 1 0 0 1-1-1 6.494 6.494 0 0 0-6.486-6.486 6.444 6.444 0 0 0-4.578 1.892.995.995 0 0 1-.881.276 1.004 1.004 0 0 1-.732-.562 12.992 12.992 0 0 0-11.743-7.495c-7.136 0-12.942 5.806-12.942 12.941 0 1.863.387 3.661 1.151 5.345a1.001 1.001 0 0 1-.878 1.412 6.724 6.724 0 0 0-6.531 6.75 6.762 6.762 0 0 0 6.754 6.755c.032 0 7.919-.004 12.135-.009h.001a1 1 0 0 1 1 1v9.31a1 1 0 0 1-1 1h-9.832a1 1 0 1 1 0-2h8.832v-7.309c-4.355.005-11.124.008-11.136.008-4.827 0-8.754-3.928-8.754-8.755a8.711 8.711 0 0 1 7.083-8.596 14.858 14.858 0 0 1-.825-4.911c0-8.238 6.703-14.941 14.942-14.941 5.357 0 10.312 2.905 12.958 7.499a8.425 8.425 0 0 1 4.976-1.609c4.354 0 7.952 3.296 8.432 7.523 6.129.483 10.968 5.624 10.968 11.873 0 5.975-4.44 11.074-10.327 11.861a.98.98 0 0 1-.133.009c-.123 0-6.027.002-9.548.005v7.343h8.741a1 1 0 1 1 0 1.999z"/><path class="st1" d="M140.994 202.521h2v11.301h-2z"/><circle class="st11" cx="118.611" cy="212.779" r="4.883"/><path class="st1" d="M118.611 218.663c-3.244 0-5.883-2.64-5.883-5.884s2.639-5.883 5.883-5.883 5.883 2.639 5.883 5.883-2.639 5.884-5.883 5.884zm0-9.767a3.888 3.888 0 0 0-3.883 3.883c0 2.142 1.742 3.884 3.883 3.884s3.883-1.742 3.883-3.884a3.888 3.888 0 0 0-3.883-3.883z"/><g><circle class="st11" cx="165.378" cy="212.779" r="4.883"/><path class="st1" d="M165.378 218.663c-3.244 0-5.883-2.64-5.883-5.884s2.639-5.883 5.883-5.883 5.883 2.639 5.883 5.883-2.639 5.884-5.883 5.884zm0-9.767a3.888 3.888 0 0 0-3.883 3.883c0 2.142 1.742 3.884 3.883 3.884s3.883-1.742 3.883-3.884a3.888 3.888 0 0 0-3.883-3.883z"/></g><g><circle class="st11" cx="141.994" cy="218.705" r="4.883"/><path class="st1" d="M141.994 224.588c-3.244 0-5.883-2.64-5.883-5.884s2.639-5.883 5.883-5.883 5.883 2.639 5.883 5.883-2.639 5.884-5.883 5.884zm0-9.766a3.888 3.888 0 0 0-3.883 3.883 3.888 3.888 0 0 0 3.883 3.884 3.888 3.888 0 0 0 3.883-3.884 3.888 3.888 0 0 0-3.883-3.883z"/></g></g><g><path transform="rotate(-3.139 252.114 94.827)" class="st1" d="M174.077 92.845h156.067v4.102H174.077z"/><path class="st1" d="M175.651 92.959l-10.273 6.712 10.948 5.542z"/></g><linearGradient id="SVGID_19_" gradientUnits="userSpaceOnUse" x1="336.612" y1="121.597" x2="483.391" y2="47.041"><stop offset="0" stop-color="#17c9c0"/><stop offset=".168" stop-color="#00a9d7"/><stop offset=".564" stop-color="#1cd0bb"/><stop offset="1" stop-color="#0fbec8"/></linearGradient><path d="M410.026 166.625h-.027c-3.083 0-6.19-.172-9.236-.512l.517-4.627c2.875.321 5.808.484 8.72.484h.026a78.36 78.36 0 0 0 8.386-.45l.499 4.629a83.531 83.531 0 0 1-8.885.476zm12.963-1.019l-.729-4.598a77.138 77.138 0 0 0 8.53-1.853l1.244 4.486a82.007 82.007 0 0 1-9.045 1.965zm-26.301-.053a81.852 81.852 0 0 1-9.037-2l1.262-4.48a77.537 77.537 0 0 0 8.522 1.887l-.747 4.593zm39.283-3.11l-1.468-4.418a77.47 77.47 0 0 0 8.115-3.217l1.957 4.223a82.254 82.254 0 0 1-8.604 3.412zm-52.253-.105a82.244 82.244 0 0 1-8.594-3.448l1.975-4.215a77.446 77.446 0 0 0 8.105 3.251l-1.486 4.412zm64.54-5.128l-2.166-4.119a78.032 78.032 0 0 0 7.484-4.491l2.616 3.85a82.558 82.558 0 0 1-7.934 4.76zm-76.822-.161a82.802 82.802 0 0 1-7.917-4.796l2.631-3.84a77.985 77.985 0 0 0 7.47 4.526l-2.184 4.11zm88.097-6.994l-2.803-3.717a78.084 78.084 0 0 0 6.664-5.641l3.202 3.379a82.497 82.497 0 0 1-7.063 5.979zm-99.351-.215a83.116 83.116 0 0 1-7.037-6.01l3.216-3.365a78.564 78.564 0 0 0 6.641 5.672l-2.82 3.703zm109.329-8.666l-3.366-3.215a78.337 78.337 0 0 0 5.671-6.643l3.703 2.82a82.555 82.555 0 0 1-6.008 7.038zm-119.269-.259a82.977 82.977 0 0 1-5.978-7.063l3.716-2.803a78.225 78.225 0 0 0 5.641 6.665l-3.379 3.201zm127.69-10.116l-3.839-2.633a77.708 77.708 0 0 0 4.525-7.469l4.111 2.184a82.573 82.573 0 0 1-4.797 7.918zm-136.062-.289a82.232 82.232 0 0 1-4.76-7.934l4.12-2.166a77.9 77.9 0 0 0 4.49 7.484l-3.85 2.616zm142.7-11.316l-4.215-1.975a77.334 77.334 0 0 0 3.25-8.104l4.412 1.484a81.902 81.902 0 0 1-3.447 8.595zm-149.28-.3a81.958 81.958 0 0 1-3.411-8.605l4.417-1.467a77.556 77.556 0 0 0 3.217 8.115l-4.223 1.957zm153.942-12.227l-4.481-1.26a77.445 77.445 0 0 0 1.885-8.523l4.594.746a82.1 82.1 0 0 1-1.998 9.037zm-158.552-.317a82.16 82.16 0 0 1-1.963-9.045l4.597-.729a77.688 77.688 0 0 0 1.851 8.531l-4.485 1.243zm161.109-12.797l-4.626-.516c.321-2.872.483-5.804.483-8.713l4.655-.008v.007c0 3.083-.172 6.188-.512 9.23zm-163.614-.325a83.563 83.563 0 0 1-.476-8.903l.001-.337 4.655.021-.001.314c0 2.806.151 5.635.449 8.406l-4.628.499zm159.376-12.794a78.05 78.05 0 0 0-.917-8.683l4.594-.748c.493 3.029.82 6.125.971 9.202l-4.648.229zm-155.086-.307l-4.648-.248a82.955 82.955 0 0 1 1.008-9.198l4.591.766a78.4 78.4 0 0 0-.951 8.68zm153.449-12.19a77.326 77.326 0 0 0-2.313-8.417l4.411-1.486a81.849 81.849 0 0 1 2.453 8.927l-4.551.976zm-151.763-.302l-4.547-.996a81.862 81.862 0 0 1 2.49-8.919l4.405 1.504a77.364 77.364 0 0 0-2.348 8.411zm148.118-11.76a77.59 77.59 0 0 0-3.654-7.929l4.11-2.184a82.355 82.355 0 0 1 3.875 8.405l-4.331 1.708zm-144.42-.299l-4.324-1.725a82.253 82.253 0 0 1 3.911-8.393l4.102 2.201a77.267 77.267 0 0 0-3.689 7.917zm138.862-11.007a78.222 78.222 0 0 0-4.89-7.232l3.704-2.818a82.561 82.561 0 0 1 5.182 7.664l-3.996 2.386zm-133.25-.286l-3.986-2.404a82.763 82.763 0 0 1 5.218-7.645l3.691 2.836a77.927 77.927 0 0 0-4.923 7.213zm125.933-9.975a78.302 78.302 0 0 0-5.992-6.352l3.202-3.379a82.86 82.86 0 0 1 6.35 6.73l-3.56 3.001zm-118.568-.26l-3.546-3.016a82.91 82.91 0 0 1 6.38-6.703l3.187 3.393a78.52 78.52 0 0 0-6.021 6.326zm109.691-8.692a78.321 78.321 0 0 0-6.938-5.306l2.616-3.85a82.842 82.842 0 0 1 7.352 5.622l-3.03 3.534zm-100.775-.221l-3.015-3.547A83.25 83.25 0 0 1 364.101 16l2.6 3.861a78.4 78.4 0 0 0-6.959 5.274zm90.569-7.187a77.557 77.557 0 0 0-7.704-4.113l1.957-4.223a82.322 82.322 0 0 1 8.167 4.359l-2.42 3.977zm-80.34-.17l-2.403-3.986a82.254 82.254 0 0 1 8.179-4.322l1.939 4.23a77.922 77.922 0 0 0-7.715 4.078zm69.067-5.488a77.047 77.047 0 0 0-8.27-2.804L432.01 5a81.66 81.66 0 0 1 8.771 2.974l-1.743 4.316zm-57.791-.114l-1.724-4.324a82.316 82.316 0 0 1 8.778-2.937l1.226 4.49a77.852 77.852 0 0 0-8.28 2.771zm45.755-3.631a77.795 77.795 0 0 0-8.614-1.418l.497-4.629c3.062.329 6.134.835 9.131 1.504l-1.014 4.543zm-33.708-.065l-.997-4.547c3-.658 6.075-1.151 9.138-1.468l.478 4.631a77.673 77.673 0 0 0-8.619 1.384zm21.225-1.672a78.325 78.325 0 0 0-8.734-.018l-.25-4.648a72.9 72.9 0 0 1 4.466-.118c1.592 0 3.203.046 4.785.138l-.267 4.646z" fill="url(#SVGID_19_)"/><g><path class="st1" d="M403.812 300.341l-3.241-2.514a15.64 15.64 0 0 1 10.018-5.897l295.478-45.491c14.304-2.202 24.686-14.305 24.686-28.776h4.102c0 16.511-11.844 30.318-28.164 32.831l-295.478 45.491c-2.945.453-5.574 2-7.401 4.356z"/><path class="st1" d="M397.606 295.297l1.724 12.15 9.661-7.566z"/></g><g><path class="st1" d="M554.461 300.243l-3.296-2.441a15.638 15.638 0 0 1 9.827-6.106L734.936 260.3a29.095 29.095 0 0 0 23.944-28.653v-12.939h4.102v12.939c0 16.085-11.489 29.834-27.318 32.69L561.72 295.733a11.548 11.548 0 0 0-7.259 4.51z"/><path class="st1" d="M548.145 295.338l1.988 12.109 9.493-7.775z"/></g><g><path class="st1" d="M727.352 299.705l-3.63-1.91a15.707 15.707 0 0 1 8.241-7.34l35.468-13.691c11.143-4.303 18.63-15.219 18.63-27.163v-30.895h4.102V249.6c0 13.628-8.542 26.081-21.255 30.989L733.44 294.28a11.606 11.606 0 0 0-6.088 5.425z"/><path class="st1" d="M720.393 295.709l3.576 11.738 8.379-8.965z"/></g></svg>