<svg width="50" height="50" viewBox="0 0 50 50" fill="none" xmlns="http://www.w3.org/2000/svg">
<path d="M49.213 44.1726L31.4966 26.4563C33.5276 23.3278 34.4859 19.5907 34.2037 15.8393C33.8966 11.7585 32.1319 7.9156 29.2346 5.01819C25.997 1.78066 21.6974 0 17.1211 0C17.099 0 17.0768 9.95673e-05 17.0546 9.95673e-05C12.454 0.0175238 8.14157 1.83293 4.91171 5.11198C-1.6904 11.8145 -1.62897 22.6614 5.04861 29.2919C7.94722 32.1701 11.7848 33.92 15.8544 34.2194C19.5961 34.4944 23.3228 33.5357 26.4427 31.5102L44.159 49.2264C44.6748 49.7421 45.3523 50 46.0297 50C46.7072 50 47.3846 49.7421 47.9005 49.2265L49.213 47.914C50.2444 46.8824 50.2444 45.2041 49.213 44.1726ZM47.8048 46.5058L46.4923 47.8183C46.2371 48.0735 45.8222 48.0733 45.5671 47.8183L27.2662 29.5173C27.0734 29.3245 26.8184 29.2257 26.5618 29.2257C26.3583 29.2257 26.1538 29.2878 25.9785 29.4147C19.9509 33.7745 11.7386 33.1285 6.45162 27.8788C0.550063 22.0189 0.4957 12.4327 6.33034 6.50941C9.18494 3.61131 12.9963 2.00678 17.0621 1.99145C17.0819 1.99145 17.1011 1.99135 17.1209 1.99135C21.1651 1.99135 24.9654 3.56521 27.8264 6.42627C33.1142 11.7141 33.7765 19.9426 29.401 25.9921C29.1144 26.3883 29.1579 26.9339 29.5037 27.2797L47.8048 45.5807C48.0599 45.8358 48.0599 46.2507 47.8048 46.5058Z" fill="black"/>
<path d="M25.8442 8.40831C21.0334 3.59762 13.2057 3.59762 8.39478 8.40831C6.06431 10.7388 4.78088 13.8373 4.78088 17.1331C4.78088 20.429 6.06431 23.5274 8.39478 25.8579C10.7252 28.1883 13.8238 29.4719 17.1196 29.4719C20.4154 29.4719 23.514 28.1883 25.8443 25.8579C30.6551 21.0471 30.6551 13.2192 25.8442 8.40831ZM24.4363 24.4498C22.4819 26.4041 19.8834 27.4805 17.1196 27.4805C14.3558 27.4805 11.7573 26.4041 9.80296 24.4497C7.84865 22.4954 6.77233 19.8969 6.77233 17.1331C6.77233 14.3693 7.84855 11.7709 9.80296 9.81649C11.8204 7.79896 14.4695 6.79064 17.1196 6.79064C19.769 6.79064 22.4192 7.79956 24.4362 9.81649C28.4706 13.851 28.4706 20.4154 24.4363 24.4498Z" fill="black"/>
<path d="M11.0469 15.3269C11.2031 14.7996 10.9023 14.2455 10.3751 14.0893C9.84802 13.933 9.29383 14.2337 9.13761 14.7609C8.26839 17.6941 9.0711 20.8588 11.2325 23.0203C11.4269 23.2146 11.6818 23.3119 11.9365 23.3119C12.1913 23.3119 12.4461 23.2146 12.6406 23.0203C13.0294 22.6314 13.0294 22.001 12.6406 21.6122C10.996 19.9676 10.3853 17.5592 11.0469 15.3269Z" fill="black"/>
<path d="M14.079 9.38065C13.0088 9.79993 12.0511 10.4275 11.2325 11.246C10.8437 11.635 10.8437 12.2654 11.2325 12.6542C11.4269 12.8486 11.6818 12.9459 11.9366 12.9459C12.1914 12.9459 12.4462 12.8486 12.6405 12.6542C13.2638 12.0309 13.9921 11.5533 14.8052 11.2349C15.3173 11.0343 15.5697 10.4567 15.3691 9.9446C15.1686 9.43253 14.5909 9.18032 14.079 9.38065Z" fill="black"/>
</svg>
