<svg width="745" height="745" viewBox="0 0 745 745" fill="none" xmlns="http://www.w3.org/2000/svg">
<path d="M372.5 0C167.091 0 0 167.091 0 372.5C0 577.909 167.091 745 372.5 745C577.909 745 745 577.909 745 372.5C745 167.091 577.909 0 372.5 0ZM372.5 62.0833C544.32 62.0833 682.917 200.68 682.917 372.5C682.917 544.32 544.32 682.917 372.5 682.917C200.68 682.917 62.0833 544.32 62.0833 372.5C62.0833 200.68 200.68 62.0833 372.5 62.0833ZM388.991 94.0951L386.081 156.178H392.871L398.691 157.148L407.422 95.0651H402.572L400.632 94.0951H388.991ZM335.638 96.0352L321.087 97.9753L329.818 159.089L345.339 157.148L335.638 96.0352ZM458.835 106.706L437.493 164.909L452.044 170.729L473.385 112.526L458.835 106.706ZM269.674 112.526L264.824 114.466L263.854 115.436H261.914L253.184 120.286L279.375 176.549L286.165 172.669L289.076 171.699L291.016 170.729L269.674 112.526ZM520.918 135.807L488.906 189.16L494.727 192.07L495.697 193.04L499.577 195.951L536.439 146.478L529.648 141.628L527.708 139.688L520.918 135.807ZM207.591 147.448L195.951 156.178L194.01 158.118H193.04L220.202 188.19L232.813 205.651L234.753 204.681L235.723 203.711L244.453 196.921L207.591 147.448ZM567.48 173.639L339.518 338.548L179.46 566.51L211.471 544.199L182.37 576.211L194.01 586.882L235.723 541.289L226.992 533.529L408.392 407.422L531.589 226.022L540.319 234.753L585.911 193.04L576.211 181.4L540.319 213.411L567.48 173.639ZM156.178 195.951L146.478 208.561L195.951 245.423L205.651 232.813L156.178 195.951ZM615.983 235.723L573.301 262.884L562.63 267.734L563.6 268.704L564.57 270.645L568.451 279.375L624.714 252.214L618.893 240.573L617.923 239.603L615.983 235.723ZM120.286 254.154L115.436 261.914V263.854L114.466 264.824L112.526 270.645L170.729 291.986L172.669 286.165L175.579 280.345L120.286 254.154ZM642.174 302.656L582.031 317.207L584.941 326.908L585.911 329.818L647.025 320.117L646.055 318.177V314.297L642.174 302.656ZM97.9753 322.057L96.0352 337.578L157.148 346.309L159.089 330.788L97.9753 322.057ZM651.875 369.59L613.073 372.5L589.792 370.56V374.44L588.822 386.081L650.905 389.961L651.875 374.44L620.833 372.5L651.875 370.56V369.59ZM156.178 387.051L94.0951 389.961V400.632L95.0651 402.572L96.0352 408.392L157.148 399.661L156.178 396.751V387.051ZM583.001 426.823L579.121 438.464L637.324 459.805L639.264 456.895V453.984L643.145 442.344L583.001 426.823ZM165.879 438.464L107.676 459.805L112.526 475.326L170.729 453.984L165.879 438.464ZM563.6 476.296L555.84 488.906L608.223 521.888L616.953 508.307L563.6 476.296ZM190.13 489.876L136.777 521.888L139.688 527.708L141.628 529.648L147.448 537.409L196.921 499.577L193.04 495.697L192.07 493.757L191.1 492.786L190.13 489.876ZM530.618 520.918L524.798 526.738L521.888 530.618L563.6 576.211L569.421 571.361L571.361 569.421L576.211 563.6L530.618 520.918ZM489.876 555.84L476.296 563.6L508.307 616.953L521.888 608.223L489.876 555.84ZM267.734 562.63L259.004 581.061L236.693 616.953H237.663L239.603 617.923L240.573 618.893L253.184 624.714L280.345 569.421L270.645 564.57L269.674 563.6L267.734 562.63ZM438.464 579.121L426.823 583.001L442.344 643.145L453.984 639.264H456.895L459.805 637.324L438.464 579.121ZM319.147 583.001L303.626 643.145L314.297 646.055H318.177L321.087 647.025L330.788 585.911H329.818L326.908 584.941L319.147 583.001ZM387.051 588.822L371.53 589.792L374.44 651.875L389.961 650.905L387.051 588.822Z" fill="black"/>
</svg>
