<svg width="800" height="800" viewBox="0 0 800 800" fill="none" xmlns="http://www.w3.org/2000/svg">
<path d="M400 100C234.57 100 100 234.57 100 400C100 565.43 234.57 700 400 700C565.43 700 700 565.43 700 400C700 234.57 565.43 100 400 100ZM400 150C538.379 150 650 261.621 650 400C650 538.379 538.379 650 400 650C261.621 650 150 538.379 150 400C150 261.621 261.621 150 400 150ZM413.281 175.781L410.938 225.781H416.406L421.094 226.562L428.125 176.562H424.219L422.656 175.781H413.281ZM370.312 177.344L358.594 178.906L365.625 228.125L378.125 226.562L370.312 177.344ZM469.531 185.938L452.344 232.812L464.062 237.5L481.25 190.625L469.531 185.938ZM317.188 190.625L313.281 192.188L312.5 192.969H310.938L303.906 196.875L325 242.188L330.469 239.062L332.812 238.281L334.375 237.5L317.188 190.625ZM519.531 209.375L493.75 252.344L498.438 254.688L499.219 255.469L502.344 257.812L532.031 217.969L526.562 214.062L525 212.5L519.531 209.375ZM267.188 218.75L257.812 225.781L256.25 227.344H255.469L277.344 251.562L287.5 265.625L289.062 264.844L289.844 264.062L296.875 258.594L267.188 218.75ZM557.031 239.844L373.438 372.656L244.531 556.25L270.312 538.281L246.875 564.062L256.25 572.656L289.844 535.938L282.812 529.688L428.906 428.125L528.125 282.031L535.156 289.062L571.875 255.469L564.062 246.094L535.156 271.875L557.031 239.844ZM225.781 257.812L217.969 267.969L257.812 297.656L265.625 287.5L225.781 257.812ZM596.094 289.844L561.719 311.719L553.125 315.625L553.906 316.406L554.688 317.969L557.812 325L603.125 303.125L598.438 293.75L597.656 292.969L596.094 289.844ZM196.875 304.688L192.969 310.938V312.5L192.188 313.281L190.625 317.969L237.5 335.156L239.062 330.469L241.406 325.781L196.875 304.688ZM617.188 343.75L568.75 355.469L571.094 363.281L571.875 365.625L621.094 357.812L620.312 356.25V353.125L617.188 343.75ZM178.906 359.375L177.344 371.875L226.562 378.906L228.125 366.406L178.906 359.375ZM625 397.656L593.75 400L575 398.438V401.562L574.219 410.938L624.219 414.062L625 401.562L600 400L625 398.438V397.656ZM225.781 411.719L175.781 414.062V422.656L176.562 424.219L177.344 428.906L226.562 421.875L225.781 419.531V411.719ZM569.531 443.75L566.406 453.125L613.281 470.312L614.844 467.969V465.625L617.969 456.25L569.531 443.75ZM233.594 453.125L186.719 470.312L190.625 482.812L237.5 465.625L233.594 453.125ZM553.906 483.594L547.656 493.75L589.844 520.312L596.875 509.375L553.906 483.594ZM253.125 494.531L210.156 520.312L212.5 525L214.062 526.562L218.75 532.812L258.594 502.344L255.469 499.219L254.688 497.656L253.906 496.875L253.125 494.531ZM527.344 519.531L522.656 524.219L520.312 527.344L553.906 564.062L558.594 560.156L560.156 558.594L564.062 553.906L527.344 519.531ZM494.531 547.656L483.594 553.906L509.375 596.875L520.312 589.844L494.531 547.656ZM315.625 553.125L308.594 567.969L290.625 596.875H291.406L292.969 597.656L293.75 598.438L303.906 603.125L325.781 558.594L317.969 554.688L317.188 553.906L315.625 553.125ZM453.125 566.406L443.75 569.531L456.25 617.969L465.625 614.844H467.969L470.312 613.281L453.125 566.406ZM357.031 569.531L344.531 617.969L353.125 620.312H356.25L358.594 621.094L366.406 571.875H365.625L363.281 571.094L357.031 569.531ZM411.719 574.219L399.219 575L401.562 625L414.062 624.219L411.719 574.219Z" fill="black"/>
</svg>
