<?xml version="1.0" encoding="iso-8859-1"?>
<!-- Uploaded to: SVG Repo, www.svgrepo.com, Generator: SVG Repo Mixer Tools -->
<!DOCTYPE svg PUBLIC "-//W3C//DTD SVG 1.1//EN" "http://www.w3.org/Graphics/SVG/1.1/DTD/svg11.dtd">
<svg fill="#000000" version="1.1" id="Capa_1" xmlns="http://www.w3.org/2000/svg" xmlns:xlink="http://www.w3.org/1999/xlink" 
	 width="800px" height="800px" viewBox="0 0 82.43 82.43" xml:space="preserve"
	>
<g>
	<g>
		<path d="M76.712,62.718c-0.672-1.567-1.792-1.792-3.136-2.239c-6.496-2.463-11.872-3.584-18.145-5.823
			c-0.449-0.224-2.24-1.345-2.24-4.479c0-1.344-0.225-2.016-1.793-2.016c-0.446,0-0.225,0-0.446-0.896
			c-0.448-2.912-0.448-4.479-0.448-4.929s0.448-0.896,0.672-1.12c2.24-2.912,2.688-6.72,2.688-8.512c0,0,0.446,0.224,0.896-0.896
			c0.448-1.344,0.674-1.791,1.12-3.358c0.448-1.12,0.673-3.584-0.896-3.584c-0.896,0.447-0.672,0-0.672-1.12c0-3.36,0-4.929,0-8.288
			c-0.226-2.912-2.018-4.704-3.359-5.601c-2.016-1.344-2.688-1.792-3.584-2.464s-0.672-1.567,0-2.464
			c0.447-0.448,0.896-0.672,1.344-0.896c5.152,2.912,8.96,8.288,8.96,14.783v4.48c-0.896,0.672-1.344,2.464-1.344,4.256
			c0,1.344,0.226,2.688,0.672,3.36l-1.12,6.048c-0.445,0.225-0.896,0.896-0.896,1.568c0,0.896,0.673,1.791,1.794,1.791
			c0.896,0,1.791-0.673,1.791-1.791c0-0.448-0.224-0.896-0.447-1.12l1.119-5.152c1.345-0.224,2.465-2.239,2.465-4.704
			c0-1.792-0.672-3.584-1.567-4.256v-4.48C60.139,8.511,51.626,0,41.323,0C31.02,0,22.506,8.511,22.506,18.815v4.48
			c-0.896,0.672-1.567,2.464-1.567,4.256c0,2.688,1.12,4.704,2.688,4.704c1.345,0,2.464-2.017,2.464-4.704
			c0-1.792-0.447-3.584-1.344-4.256v-4.48c0-9.407,7.615-16.575,16.575-16.575c2.688,0,5.152,0.672,7.393,1.792
			c-0.445,0-5.15,0.672-6.943,1.12c-3.584,0.896-7.168,2.016-9.855,4.479c-2.017,1.568-3.809,3.584-4.032,6.272
			c0,1.344,0,5.823,0,8.287c0,0.673,0,1.12-0.672,0.896c-1.792,0-0.672,3.136-0.672,3.36c0.447,1.791,0.672,2.239,1.119,3.584
			c0.225,1.118,0.673,0.896,0.673,0.896c0.447,2.24,1.344,6.272,3.136,8.514c0.225,0.225,0.448,0.672,0.448,1.119
			c-0.225,1.567-0.225,3.359-0.448,4.928c0,0.226-0.225,0.896-0.672,0.896c-1.345,0-1.567,0.896-1.567,2.016
			c-0.225,2.24-1.345,4.033-2.24,4.48c-3.136,1.344-14.111,4.704-17.695,5.824c-2.465,0.445-3.137,1.344-3.584,2.24l-3.137,8.062
			c13.889,0,21.057,8.736,35.393,10.976c0,0,2.017,0.449,3.359,0.449c1.345,0,3.361-0.449,3.361-0.449
			c14.781-2.463,25.088-10.976,35.168-10.976L76.712,62.718z M31.239,59.134l2.688,2.688l1.568,0.225l2.017-2.016l-0.448-1.568
			l-2.688-2.688c1.567-0.447,3.137,0,4.256,1.119c1.345,1.345,1.567,3.138,1.12,4.705l0,0l-1.792,1.791h-0.671l-1.12,1.119
			c-1.345,0.225-2.688-0.224-3.584-1.344C31.239,62.271,30.792,60.479,31.239,59.134z M36.168,76.383l-1.792-0.224l-2.912-2.912
			l-0.225-1.792l6.496-6.496l1.792,0.225l-0.447-0.672l1.119-1.121l1.568,1.568l5.601-5.602l0.446-1.344l2.688-2.017l1.347,1.565
			l-2.019,2.688l-1.345,0.448l-5.6,5.6l1.344,1.344l-1.119,1.121l-0.672-0.449l0.224,1.795L36.168,76.383z M51.85,73.471
			l-2.688-2.688l-1.345-0.226l-2.018,2.018l0.227,1.344l2.688,2.688c-1.566,0.447-3.136,0-4.256-1.119s-1.344-2.465-1.12-3.81
			l1.12-1.12v-0.672l1.792-1.792l0,0c1.567-0.448,3.36-0.224,4.704,1.12C51.85,70.111,52.296,71.902,51.85,73.471z"/>
	</g>
</g>
</svg>