<svg width="100" height="100" viewBox="0 0 100 100" fill="none" xmlns="http://www.w3.org/2000/svg">
<g clip-path="url(#clip0_11_8)">
<path d="M91.2735 52.3242C91.086 52.1172 90.8164 52 90.5352 52H51.4649C51.1836 52 50.9141 52.1172 50.7266 52.3242C50.5352 52.5312 50.4414 52.8086 50.4688 53.0898L53.9883 92.5156C54.0235 92.9297 54.3125 93.2734 54.711 93.3906L70.7227 97.9609C70.8086 97.9883 70.9024 98 70.9961 98C71.0899 98 71.1797 97.9883 71.2696 97.9609L87.293 93.3906C87.6914 93.2734 87.9766 92.9297 88.0157 92.5156L91.5313 53.0898C91.5586 52.8086 91.4649 52.5312 91.2735 52.3242ZM82.8477 65.918H64.0352L64.4844 71.0078H82.3946L81.0508 86.0508L70.9922 89.0898L70.8946 89.0586L60.9532 86.0469L60.4102 79.918H65.2813L65.4922 82.2969L71.0508 83.4609L76.5078 82.2969L77.0899 75.8594H60.0469L58.7227 61.0547H83.2813L82.8477 65.918Z" fill="black"/>
<path fill-rule="evenodd" clip-rule="evenodd" d="M70.4 6.20001L66.8 47L50 51.8L33.2 47L29.6 6.20001H70.4ZM40.1609 32.6H44.9609L45.0781 35.6L50 37.2781L54.9218 35.6L55.2781 30.2H44.7218L44.4781 25.4H55.5218L55.8781 20.6H39.3219L38.9609 15.8H60.9218L60.3218 25.4L59.4781 39.2L50 42.3219L40.5218 39.2L40.1609 32.6Z" fill="black"/>
<path d="M49.274 52.325C49.084 52.118 48.817 52 48.536 52H9.46399C9.18299 52 8.91599 52.118 8.72599 52.325C8.53599 52.532 8.44299 52.81 8.46799 53.089L11.988 92.516C12.025 92.928 12.312 93.275 12.71 93.389L28.72 97.962C28.809 97.987 28.902 98 28.994 98C29.086 98 29.179 97.987 29.268 97.962L45.292 93.389C45.69 93.275 45.977 92.928 46.014 92.516L49.532 53.089C49.557 52.81 49.463 52.532 49.274 52.325ZM16 79.004L23 80.946V61H27V87L16 83.949V79.004ZM42.054 72L41 84.25L31 87V82.399L37.75 80.544L38 76.794L31 78V61H43L42.655 65H35V73L42.054 72Z" fill="black"/>
</g>
<defs>
<clipPath id="clip0_11_8">
<rect width="100" height="100" fill="white"/>
</clipPath>
</defs>
</svg>
