<svg width="27" height="27" viewBox="0 0 27 27" fill="none" xmlns="http://www.w3.org/2000/svg">
<g clip-path="url(#clip0_11_8)">
<g clip-path="url(#clip1_11_8)">
<path d="M12.443 12.2975C12.386 12.2354 12.3059 12.2 12.2216 12.2H0.499951C0.415651 12.2 0.33555 12.2354 0.27855 12.2975C0.22155 12.3596 0.193651 12.443 0.201151 12.5267L1.25715 24.3548C1.26825 24.4784 1.35435 24.5825 1.47375 24.6167L6.27675 25.9886C6.30345 25.9961 6.33135 26 6.35895 26C6.38655 26 6.41445 25.9961 6.44115 25.9886L11.2484 24.6167C11.3678 24.5825 11.4539 24.4784 11.465 24.3548L12.5204 12.5267C12.5279 12.443 12.4997 12.3596 12.443 12.2975ZM2.46075 20.3012L4.56075 20.8838V14.9H5.76075V22.7L2.46075 21.7847V20.3012ZM10.277 18.2L9.96075 21.875L6.96075 22.7V21.3197L8.98575 20.7632L9.06075 19.6382L6.96075 20V14.9H10.5608L10.4573 16.1H8.16075V18.5L10.277 18.2Z" fill="black"/>
</g>
<path fill-rule="evenodd" clip-rule="evenodd" d="M24.324 12L23.2366 24.3474L18.162 25.8L13.0874 24.3474L12 12H24.324ZM15.19 19.9895H16.6399L16.6753 20.8974L18.162 21.4052L19.6487 20.8974L19.7563 19.2632H16.5677L16.4941 17.8105H19.8299L19.9375 16.3579H14.9366L14.8276 14.9053H21.461L21.2798 17.8105L21.025 21.9868L18.162 22.9316L15.299 21.9868L15.19 19.9895Z" fill="black"/>
<g clip-path="url(#clip2_11_8)">
<path d="M18.4428 0.297278C18.3865 0.235169 18.3056 0.200012 18.2213 0.200012H6.50018C6.4158 0.200012 6.33494 0.235169 6.27869 0.297278C6.22127 0.359387 6.19315 0.44259 6.20135 0.526965L7.25721 12.3547C7.26776 12.4789 7.35448 12.582 7.47401 12.6172L12.2775 13.9883C12.3033 13.9965 12.3314 14 12.3596 14C12.3877 14 12.4146 13.9965 12.4416 13.9883L17.2486 12.6172C17.3681 12.582 17.4537 12.4789 17.4654 12.3547L18.5201 0.526965C18.5283 0.44259 18.5002 0.359387 18.4428 0.297278ZM15.915 4.3754H10.2713L10.406 5.90236H15.7791L15.376 10.4152L12.3584 11.327L12.3291 11.3176L9.34666 10.4141L9.18377 8.5754H10.6451L10.7084 9.28908L12.376 9.63829L14.0131 9.28908L14.1877 7.35782H9.07479L8.67752 2.91642H16.0451L15.915 4.3754Z" fill="black"/>
</g>
</g>
<defs>
<clipPath id="clip0_11_8">
<rect width="27" height="27" fill="white"/>
</clipPath>
<clipPath id="clip1_11_8">
<rect width="15" height="15" fill="white" transform="translate(-1 11)"/>
</clipPath>
<clipPath id="clip2_11_8">
<rect width="15" height="15" fill="white" transform="translate(5 -1)"/>
</clipPath>
</defs>
</svg>
