<svg width="27" height="27" viewBox="0 0 27 27" fill="none" xmlns="http://www.w3.org/2000/svg">
<g clip-path="url(#clip0_17_6)">
<path d="M12.243 13.594C12.186 13.5341 12.1059 13.5 12.0216 13.5H0.299999C0.215699 13.5 0.135599 13.5341 0.0785993 13.594C0.0215993 13.6539 -0.00630066 13.7343 0.00119934 13.815L1.0572 25.2207C1.0683 25.3399 1.1544 25.4403 1.2738 25.4732L6.0768 26.7962C6.1035 26.8034 6.1314 26.8071 6.159 26.8071C6.1866 26.8071 6.2145 26.8034 6.2412 26.7962L11.0484 25.4732C11.1678 25.4403 11.2539 25.3399 11.265 25.2207L12.3204 13.815C12.3279 13.7343 12.2997 13.6539 12.243 13.594ZM2.2608 21.3119L4.3608 21.8737V16.1036H5.5608V23.625L2.2608 22.7424V21.3119ZM10.077 19.2857L9.7608 22.8295L6.7608 23.625V22.294L8.7858 21.7574L8.8608 20.6726L6.7608 21.0214V16.1036H10.3608L10.2573 17.2607H7.9608V19.575L10.077 19.2857Z" fill="black"/>
<path fill-rule="evenodd" clip-rule="evenodd" d="M26.324 13.5L25.2366 25.4064L20.162 26.8071L15.0874 25.4064L14 13.5H26.324ZM17.19 21.2041H18.6399L18.6753 22.0796L20.162 22.5693L21.6487 22.0796L21.7563 20.5038H18.5677L18.4941 19.103H21.8299L21.9375 17.7023H16.9366L16.8276 16.3015H23.461L23.2798 19.103L23.025 23.1302L20.162 24.0412L17.299 23.1302L17.19 21.2041Z" fill="black"/>
<path d="M19.2428 0.0937919C19.1866 0.0339008 19.1057 0 19.0213 0H7.30023C7.21585 0 7.13499 0.0339008 7.07874 0.0937919C7.02132 0.153683 6.9932 0.233915 7.0014 0.315276L8.05726 11.7206C8.06781 11.8404 8.15452 11.9398 8.27406 11.9737L13.0776 13.2958C13.1034 13.3038 13.1315 13.3071 13.1596 13.3071C13.1877 13.3071 13.2147 13.3038 13.2416 13.2958L18.0487 11.9737C18.1682 11.9398 18.2537 11.8404 18.2655 11.7206L19.3202 0.315276C19.3284 0.233915 19.3002 0.153683 19.2428 0.0937919ZM16.7151 4.02627H11.0713L11.2061 5.49869H16.5791L16.176 9.8504L13.1584 10.7296L13.1291 10.7205L10.1467 9.84927L9.98382 8.07627H11.4451L11.5084 8.76445L13.176 9.1012L14.8131 8.76445L14.9877 6.90218H9.87484L9.47757 2.61939H16.8452L16.7151 4.02627Z" fill="black"/>
</g>
<defs>
<clipPath id="clip0_17_6">
<rect width="27" height="27" fill="white"/>
</clipPath>
</defs>
</svg>
