<svg width="380" height="198" viewBox="0 0 380 198" fill="none" xmlns="http://www.w3.org/2000/svg">
<rect width="380" height="50" fill="black"/>
<rect x="5" y="5" width="370" height="40" fill="#AB0606"/>
<line x1="125.006" y1="197.043" x2="123" y2="57.043" stroke="black" stroke-width="6"/>
<line x1="125.006" y1="197.043" x2="123" y2="57.043" stroke="#AB0606" stroke-width="6"/>
<line x1="260.006" y1="196.043" x2="258" y2="56.043" stroke="black" stroke-width="6"/>
<line x1="260.006" y1="196.043" x2="258" y2="56.043" stroke="#AB0606" stroke-width="6"/>
<path d="M59.2812 146.312C53.7188 146.312 49.4792 144.625 46.5625 141.25C43.6458 137.875 42.1875 132.938 42.1875 126.438C42.1875 119.958 43.6354 115.062 46.5312 111.75C49.4479 108.417 53.6979 106.75 59.2812 106.75C64.8854 106.75 69.1458 108.417 72.0625 111.75C74.9792 115.062 76.4375 119.958 76.4375 126.438C76.4375 132.938 74.9792 137.875 72.0625 141.25C69.1458 144.625 64.8854 146.312 59.2812 146.312ZM59.2812 142.094C63.1979 142.094 66.1979 140.76 68.2812 138.094C70.3646 135.406 71.4062 131.521 71.4062 126.438C71.4062 121.354 70.3646 117.51 68.2812 114.906C66.2188 112.281 63.2188 110.969 59.2812 110.969C55.3646 110.969 52.375 112.281 50.3125 114.906C48.25 117.51 47.2188 121.354 47.2188 126.438C47.2188 131.542 48.25 135.427 50.3125 138.094C52.375 140.76 55.3646 142.094 59.2812 142.094Z" fill="black"/>
<path d="M182.25 146.094C181.458 146.094 180.885 146 180.531 145.812C180.177 145.604 180 145.292 180 144.875V108.219C180 107.385 180.75 106.969 182.25 106.969H183.406C183.99 106.969 184.448 107.052 184.781 107.219C185.135 107.385 185.448 107.656 185.719 108.031L203.469 134.812L205.125 137.938V108.219C205.125 107.385 205.854 106.969 207.312 106.969H207.75C209.208 106.969 209.938 107.385 209.938 108.219V144.875C209.938 145.292 209.76 145.604 209.406 145.812C209.052 146 208.5 146.094 207.75 146.094H206.625C206.104 146.094 205.688 146.031 205.375 145.906C205.062 145.781 204.823 145.583 204.656 145.312L186.344 117.688L184.844 114.812V144.875C184.844 145.688 184.104 146.094 182.625 146.094H182.25Z" fill="black"/>
<path d="M317.062 143C316.479 143 316.052 142.865 315.781 142.594C315.51 142.323 315.375 141.906 315.375 141.344V105.781C315.375 105.198 315.51 104.781 315.781 104.531C316.052 104.26 316.479 104.125 317.062 104.125H336.438C336.833 104.125 337.115 104.25 337.281 104.5C337.469 104.75 337.562 105.177 337.562 105.781V106.688C337.562 107.25 337.469 107.667 337.281 107.938C337.115 108.208 336.833 108.344 336.438 108.344H320.281V121H334.781C335.177 121 335.458 121.135 335.625 121.406C335.812 121.677 335.906 122.104 335.906 122.688V123.531C335.906 124.115 335.812 124.542 335.625 124.812C335.458 125.062 335.177 125.188 334.781 125.188H320.281V138.781H336.5C336.896 138.781 337.177 138.917 337.344 139.188C337.531 139.438 337.625 139.854 337.625 140.438V141.344C337.625 141.906 337.531 142.323 337.344 142.594C337.177 142.865 336.896 143 336.5 143H317.062Z" fill="black"/>
</svg>
