<svg width="220" height="60" viewBox="0 0 220 60" fill="none" xmlns="http://www.w3.org/2000/svg">
<line x1="81" y1="53" x2="81" y2="23" stroke="black" stroke-width="6"/>
<line x1="81" y1="53" x2="81" y2="23" stroke="#0A06AB" stroke-width="6"/>
<line x1="139" y1="53" x2="139" y2="23" stroke="black" stroke-width="6"/>
<line x1="139" y1="53" x2="139" y2="23" stroke="#AB0606" stroke-width="6"/>
<path d="M102.051 50.0586C101.556 50.0586 101.198 50 100.977 49.8828C100.755 49.7526 100.645 49.5573 100.645 49.2969V26.3867C100.645 25.8659 101.113 25.6055 102.051 25.6055H102.773C103.138 25.6055 103.424 25.6576 103.633 25.7617C103.854 25.8659 104.049 26.0352 104.219 26.2695L115.312 43.0078L116.348 44.9609V26.3867C116.348 25.8659 116.803 25.6055 117.715 25.6055H117.988C118.9 25.6055 119.355 25.8659 119.355 26.3867V49.2969C119.355 49.5573 119.245 49.7526 119.023 49.8828C118.802 50 118.457 50.0586 117.988 50.0586H117.285C116.96 50.0586 116.699 50.0195 116.504 49.9414C116.309 49.8633 116.159 49.7396 116.055 49.5703L104.609 32.3047L103.672 30.5078V49.2969C103.672 49.8047 103.21 50.0586 102.285 50.0586H102.051Z" fill="black"/>
<path d="M175.922 50C175.557 50 175.29 49.9154 175.121 49.7461C174.952 49.5768 174.867 49.3164 174.867 48.9648V26.7383C174.867 26.3737 174.952 26.1133 175.121 25.957C175.29 25.7878 175.557 25.7031 175.922 25.7031H188.031C188.279 25.7031 188.454 25.7812 188.559 25.9375C188.676 26.0938 188.734 26.3607 188.734 26.7383V27.3047C188.734 27.6562 188.676 27.9167 188.559 28.0859C188.454 28.2552 188.279 28.3398 188.031 28.3398H177.934V36.25H186.996C187.243 36.25 187.419 36.3346 187.523 36.5039C187.641 36.6732 187.699 36.9401 187.699 37.3047V37.832C187.699 38.1966 187.641 38.4635 187.523 38.6328C187.419 38.7891 187.243 38.8672 186.996 38.8672H177.934V47.3633H188.07C188.318 47.3633 188.493 47.4479 188.598 47.6172C188.715 47.7734 188.773 48.0339 188.773 48.3984V48.9648C188.773 49.3164 188.715 49.5768 188.598 49.7461C188.493 49.9154 188.318 50 188.07 50H175.922Z" fill="black"/>
<path d="M38.9805 50.1953C35.5039 50.1953 32.8542 49.1406 31.0312 47.0312C29.2083 44.9219 28.2969 41.8359 28.2969 37.7734C28.2969 33.724 29.2018 30.6641 31.0117 28.5938C32.8346 26.5104 35.4909 25.4688 38.9805 25.4688C42.4831 25.4688 45.1458 26.5104 46.9688 28.5938C48.7917 30.6641 49.7031 33.724 49.7031 37.7734C49.7031 41.8359 48.7917 44.9219 46.9688 47.0312C45.1458 49.1406 42.4831 50.1953 38.9805 50.1953ZM38.9805 47.5586C41.4284 47.5586 43.3034 46.7253 44.6055 45.0586C45.9076 43.3789 46.5586 40.9505 46.5586 37.7734C46.5586 34.5964 45.9076 32.194 44.6055 30.5664C43.3164 28.9258 41.4414 28.1055 38.9805 28.1055C36.5326 28.1055 34.6641 28.9258 33.375 30.5664C32.0859 32.194 31.4414 34.5964 31.4414 37.7734C31.4414 40.9635 32.0859 43.3919 33.375 45.0586C34.6641 46.7253 36.5326 47.5586 38.9805 47.5586Z" fill="black"/>
<rect y="2" width="220" height="18" fill="black"/>
<rect x="110" y="5" width="107" height="12" fill="#0A06AB"/>
<rect x="3" y="5" width="107" height="12" fill="#AB0606"/>
<line x1="136" y1="56" x2="84" y2="56" stroke="black" stroke-width="6"/>
<line x1="136" y1="56" x2="84" y2="56" stroke="#AB0606" stroke-width="6"/>
<line x1="136" y1="56" x2="110" y2="56" stroke="black" stroke-width="6"/>
<line x1="136" y1="56" x2="110" y2="56" stroke="#0A06AB" stroke-width="6"/>
</svg>
