<svg width="256" height="60" viewBox="0 0 256 60" fill="none" xmlns="http://www.w3.org/2000/svg">
<rect width="256" height="15.2284" fill="black"/>
<rect x="3.36841" y="1.52295" width="249.263" height="12.1827" fill="#AB0606"/>
<line x1="82" y1="60" x2="82" y2="17" stroke="black" stroke-width="6"/>
<line x1="82" y1="60" x2="82" y2="17" stroke="#AB0606" stroke-width="6"/>
<line x1="174" y1="60" x2="174" y2="17" stroke="black" stroke-width="6"/>
<line x1="174" y1="60" x2="174" y2="17" stroke="#AB0606" stroke-width="6"/>
<path d="M42.2812 59.3125C36.7188 59.3125 32.4792 57.625 29.5625 54.25C26.6458 50.875 25.1875 45.9375 25.1875 39.4375C25.1875 32.9583 26.6354 28.0625 29.5312 24.75C32.4479 21.4167 36.6979 19.75 42.2812 19.75C47.8854 19.75 52.1458 21.4167 55.0625 24.75C57.9792 28.0625 59.4375 32.9583 59.4375 39.4375C59.4375 45.9375 57.9792 50.875 55.0625 54.25C52.1458 57.625 47.8854 59.3125 42.2812 59.3125ZM42.2812 55.0938C46.1979 55.0938 49.1979 53.7604 51.2812 51.0938C53.3646 48.4062 54.4062 44.5208 54.4062 39.4375C54.4062 34.3542 53.3646 30.5104 51.2812 27.9062C49.2188 25.2812 46.2188 23.9688 42.2812 23.9688C38.3646 23.9688 35.375 25.2812 33.3125 27.9062C31.25 30.5104 30.2188 34.3542 30.2188 39.4375C30.2188 44.5417 31.25 48.4271 33.3125 51.0938C35.375 53.7604 38.3646 55.0938 42.2812 55.0938Z" fill="black"/>
<path d="M115.25 59.0938C114.458 59.0938 113.885 59 113.531 58.8125C113.177 58.6042 113 58.2917 113 57.875V21.2188C113 20.3854 113.75 19.9688 115.25 19.9688H116.406C116.99 19.9688 117.448 20.0521 117.781 20.2188C118.135 20.3854 118.448 20.6562 118.719 21.0312L136.469 47.8125L138.125 50.9375V21.2188C138.125 20.3854 138.854 19.9688 140.312 19.9688H140.75C142.208 19.9688 142.938 20.3854 142.938 21.2188V57.875C142.938 58.2917 142.76 58.6042 142.406 58.8125C142.052 59 141.5 59.0938 140.75 59.0938H139.625C139.104 59.0938 138.688 59.0312 138.375 58.9062C138.062 58.7812 137.823 58.5833 137.656 58.3125L119.344 30.6875L117.844 27.8125V57.875C117.844 58.6875 117.104 59.0938 115.625 59.0938H115.25Z" fill="black"/>
<path d="M206.062 59C205.479 59 205.052 58.8646 204.781 58.5938C204.51 58.3229 204.375 57.9062 204.375 57.3438V21.7812C204.375 21.1979 204.51 20.7812 204.781 20.5312C205.052 20.2604 205.479 20.125 206.062 20.125H225.438C225.833 20.125 226.115 20.25 226.281 20.5C226.469 20.75 226.562 21.1771 226.562 21.7812V22.6875C226.562 23.25 226.469 23.6667 226.281 23.9375C226.115 24.2083 225.833 24.3438 225.438 24.3438H209.281V37H223.781C224.177 37 224.458 37.1354 224.625 37.4062C224.812 37.6771 224.906 38.1042 224.906 38.6875V39.5312C224.906 40.1146 224.812 40.5417 224.625 40.8125C224.458 41.0625 224.177 41.1875 223.781 41.1875H209.281V54.7812H225.5C225.896 54.7812 226.177 54.9167 226.344 55.1875C226.531 55.4375 226.625 55.8542 226.625 56.4375V57.3438C226.625 57.9062 226.531 58.3229 226.344 58.5938C226.177 58.8646 225.896 59 225.5 59H206.062Z" fill="black"/>
</svg>
