<svg width="220" height="50" viewBox="0 0 220 50" fill="none" xmlns="http://www.w3.org/2000/svg">
<rect width="220" height="12.6904" fill="black"/>
<rect x="2.89478" y="1.26904" width="214.211" height="10.1523" fill="#AB0606"/>
<line x1="72.0469" y1="50" x2="72.0469" y2="14.1667" stroke="black" stroke-width="6"/>
<line x1="72.0469" y1="50" x2="72.0469" y2="14.1667" stroke="#AB0606" stroke-width="6"/>
<line x1="151.109" y1="50" x2="151.109" y2="14.1667" stroke="black" stroke-width="6"/>
<line x1="151.109" y1="50" x2="151.109" y2="14.1667" stroke="#AB0606" stroke-width="6"/>
<path d="M37.8447 47.2441C33.499 47.2441 30.1868 45.9258 27.9082 43.2891C25.6296 40.6523 24.4902 36.7949 24.4902 31.7168C24.4902 26.6549 25.6214 22.8301 27.8838 20.2422C30.1624 17.638 33.4827 16.3359 37.8447 16.3359C42.223 16.3359 45.5514 17.638 47.8301 20.2422C50.1087 22.8301 51.248 26.6549 51.248 31.7168C51.248 36.7949 50.1087 40.6523 47.8301 43.2891C45.5514 45.9258 42.223 47.2441 37.8447 47.2441ZM37.8447 43.9482C40.9046 43.9482 43.2484 42.9066 44.876 40.8232C46.5036 38.7236 47.3174 35.6882 47.3174 31.7168C47.3174 27.7454 46.5036 24.7425 44.876 22.708C43.2646 20.6572 40.9209 19.6318 37.8447 19.6318C34.7848 19.6318 32.4492 20.6572 30.8379 22.708C29.2266 24.7425 28.4209 27.7454 28.4209 31.7168C28.4209 35.7044 29.2266 38.7399 30.8379 40.8232C32.4492 42.9066 34.7848 43.9482 37.8447 43.9482Z" fill="black"/>
<path d="M100.664 47.0732C100.046 47.0732 99.598 47 99.3213 46.8535C99.0446 46.6908 98.9062 46.4466 98.9062 46.1211V17.4834C98.9062 16.8324 99.4922 16.5068 100.664 16.5068H101.567C102.023 16.5068 102.381 16.5719 102.642 16.7021C102.918 16.8324 103.162 17.0439 103.374 17.3369L117.241 38.2598L118.535 40.7012V17.4834C118.535 16.8324 119.105 16.5068 120.244 16.5068H120.586C121.725 16.5068 122.295 16.8324 122.295 17.4834V46.1211C122.295 46.4466 122.157 46.6908 121.88 46.8535C121.603 47 121.172 47.0732 120.586 47.0732H119.707C119.3 47.0732 118.975 47.0244 118.73 46.9268C118.486 46.8291 118.299 46.6745 118.169 46.4629L103.862 24.8809L102.69 22.6348V46.1211C102.69 46.7559 102.113 47.0732 100.957 47.0732H100.664Z" fill="black"/>
<path d="M177.518 47C177.062 47 176.728 46.8942 176.517 46.6826C176.305 46.471 176.199 46.1455 176.199 45.7061V17.9229C176.199 17.4671 176.305 17.1416 176.517 16.9463C176.728 16.7347 177.062 16.6289 177.518 16.6289H192.654C192.964 16.6289 193.183 16.7266 193.313 16.9219C193.46 17.1172 193.533 17.4508 193.533 17.9229V18.6309C193.533 19.0703 193.46 19.3958 193.313 19.6074C193.183 19.819 192.964 19.9248 192.654 19.9248H180.032V29.8125H191.36C191.67 29.8125 191.889 29.9183 192.02 30.1299C192.166 30.3415 192.239 30.6751 192.239 31.1309V31.79C192.239 32.2458 192.166 32.5794 192.02 32.791C191.889 32.9863 191.67 33.084 191.36 33.084H180.032V43.7041H192.703C193.012 43.7041 193.232 43.8099 193.362 44.0215C193.509 44.2168 193.582 44.5423 193.582 44.998V45.7061C193.582 46.1455 193.509 46.471 193.362 46.6826C193.232 46.8942 193.012 47 192.703 47H177.518Z" fill="black"/>
</svg>
